<svg width="25" height="30" viewBox="0 0 25 30" fill="none" xmlns="http://www.w3.org/2000/svg">
<path d="M23.916 10.228C23.7422 10.363 20.6743 12.0942 20.6743 15.9436C20.6743 20.396 24.5781 21.9712 24.6949 22.0102C24.677 22.1062 24.0748 24.1674 22.6367 26.2676C21.3544 28.1158 20.0152 29.961 17.978 29.961C15.9407 29.961 15.4164 28.7759 13.0646 28.7759C10.7726 28.7759 9.95772 30 8.09423 30C6.23073 30 4.93048 28.2898 3.43548 26.1896C1.70381 23.7234 0.304688 19.892 0.304688 16.2556C0.304688 10.423 4.0916 7.32973 7.8186 7.32973C9.79894 7.32973 11.4497 8.63186 12.6931 8.63186C13.8765 8.63186 15.722 7.25173 17.975 7.25173C18.8288 7.25173 21.8967 7.32973 23.916 10.228ZM16.9054 4.78248C17.8371 3.67537 18.4963 2.13921 18.4963 0.60306C18.4985 0.400595 18.4794 0.198458 18.4393 0C16.9234 0.0570057 15.1198 1.0111 14.0323 2.27423C13.1784 3.24632 12.3815 4.78248 12.3815 6.33963C12.3824 6.52209 12.4015 6.704 12.4384 6.88269C12.5728 6.90756 12.7092 6.92061 12.8458 6.92169C14.206 6.92169 15.9167 6.0096 16.9054 4.78248Z" fill="white"/>
</svg>
