<svg width="25" height="30" viewBox="0 0 25 30" fill="none" xmlns="http://www.w3.org/2000/svg">
<path d="M23.735 10.228C23.5612 10.363 20.4933 12.0942 20.4933 15.9436C20.4933 20.396 24.3971 21.9712 24.5139 22.0102C24.496 22.1062 23.8938 24.1674 22.4557 26.2676C21.1734 28.1158 19.8342 29.961 17.797 29.961C15.7597 29.961 15.2354 28.7759 12.8836 28.7759C10.5916 28.7759 9.77674 30 7.91324 30C6.04974 30 4.74949 28.2898 3.2545 26.1896C1.52282 23.7234 0.123703 19.892 0.123703 16.2556C0.123703 10.423 3.91062 7.32973 7.63761 7.32973C9.61795 7.32973 11.2687 8.63186 12.5121 8.63186C13.6955 8.63186 15.541 7.25173 17.794 7.25173C18.6478 7.25173 21.7157 7.32973 23.735 10.228ZM16.7244 4.78248C17.6562 3.67537 18.3153 2.13921 18.3153 0.60306C18.3175 0.400595 18.2984 0.198458 18.2583 0C16.7424 0.0570057 14.9388 1.0111 13.8513 2.27423C12.9974 3.24632 12.2005 4.78248 12.2005 6.33963C12.2015 6.52209 12.2205 6.704 12.2574 6.88269C12.3918 6.90756 12.5282 6.92061 12.6649 6.92169C14.025 6.92169 15.7357 6.0096 16.7244 4.78248Z" fill="black"/>
</svg>
