<svg width="28" height="30" viewBox="0 0 28 30" fill="none" xmlns="http://www.w3.org/2000/svg">
<path d="M13.1257 14.3364L0.550781 27.5111C0.671903 27.9424 0.876823 28.3457 1.15383 28.6978C1.43084 29.05 1.77452 29.3441 2.16522 29.5634C2.55593 29.7826 2.98601 29.9228 3.43089 29.9758C3.87578 30.0289 4.32675 29.9937 4.75805 29.8724C5.03429 29.7956 5.299 29.6821 5.54515 29.5351L19.6943 21.4766L13.1257 14.3364Z" fill="#E8E8E8"/>
<path d="M25.8029 12.0973L19.6841 8.59277L12.7969 14.6366L19.7122 21.4582L25.7841 17.9912C26.5639 17.5806 27.149 16.8774 27.4107 16.0358C27.6725 15.1943 27.5896 14.2833 27.1803 13.5028C26.8739 12.9057 26.3936 12.4157 25.8029 12.0973Z" fill="#ADADAD"/>
<path d="M0.55034 2.51123C0.471048 2.79157 0.433164 3.082 0.437894 3.3733V26.6491C0.437717 26.9402 0.47552 27.23 0.55034 27.5112L13.5563 14.6739L0.55034 2.51123Z" fill="#D3D3D3"/>
<path d="M13.2194 15.0113L19.7224 8.5926L5.59201 0.477909C5.05808 0.172171 4.45498 0.00769519 3.83976 2.82164e-05C3.09535 -0.00300286 2.37051 0.238247 1.7764 0.686788C1.1823 1.13533 0.751746 1.76638 0.550781 2.48315L13.2194 15.0113Z" fill="white"/>
</svg>
