<svg width="150" height="96" viewBox="0 0 150 96" fill="none" xmlns="http://www.w3.org/2000/svg">
<g style="mix-blend-mode:multiply" opacity="0.15">
<ellipse cx="75" cy="88.5598" rx="75" ry="7.44065" fill="#9B9B9B"/>
</g>
<path d="M58.2572 68.5375C57.2856 68.3838 56.2714 68.6315 55.5896 69.3915C54.976 70.0747 54.7288 70.9372 54.8055 71.8253C53.6806 71.2104 52.3766 70.903 51.3113 71.5777C50.2545 72.2523 49.9221 73.5332 50.1437 74.7373C49.0443 73.9517 47.4847 73.7126 46.283 74.2164C45.2347 74.6605 44.5956 75.8475 44.6552 76.9661C44.7234 78.3581 45.6183 80.1941 47.2631 79.9209C47.3909 79.8952 47.5103 79.8525 47.6125 79.7842C48.0557 79.9892 48.55 80.1002 49.0614 80.1258C49.675 80.1514 50.1949 79.5964 50.1949 78.9986C50.1949 78.7851 50.1352 78.5887 50.0414 78.4264C50.1181 78.2898 50.1608 78.1532 50.1693 78.0165C50.8085 78.1617 51.3539 77.6066 51.4391 77.0003C51.7886 77.2736 52.2062 77.4614 52.6664 77.5212C53.0669 77.5725 53.4334 77.3077 53.638 76.9661C53.7147 76.9918 53.7999 77.0088 53.8851 77.0259C54.4391 77.1284 54.993 76.9064 55.2146 76.3855C55.7771 76.1378 56.0754 75.4546 55.8368 74.8996C55.8538 74.8996 55.8709 74.891 55.8879 74.891C56.101 74.8483 56.2799 74.7288 56.4163 74.5836C56.5612 74.7032 56.7061 74.8142 56.8509 74.9166C57.3538 75.2668 58.1038 75.0191 58.402 74.5238C58.4958 74.3616 58.5469 74.1908 58.5554 74.02C58.6407 73.8919 58.7089 73.7467 58.7429 73.593C59.2543 73.8321 59.8935 73.6357 60.1833 73.1404C60.3452 72.8671 60.3707 72.5853 60.3111 72.3291C60.3537 72.3206 60.3963 72.3206 60.4389 72.3121C60.8224 72.2608 61.1548 71.868 61.2486 71.5179C61.3594 71.0994 61.2145 70.7664 60.9758 70.4333C60.3196 69.5367 59.3736 68.7083 58.2572 68.5375Z" fill="#F4A200"/>
<path d="M29.6217 80.5955C29.9115 80.5271 30.1246 80.3393 30.2524 80.1087C30.3632 80.7065 30.6615 81.253 30.9683 81.7739C31.2495 82.2351 31.8291 82.4315 32.3148 82.1668C32.7239 81.9447 32.937 81.4238 32.7836 80.9797C33.0478 81.1249 33.3035 81.2872 33.5591 81.4494C33.9341 81.6885 34.4455 81.6117 34.7608 81.3042C34.9142 81.1591 34.9994 80.9883 35.0335 80.809C35.2722 80.937 35.5705 80.9627 35.8346 80.8687C35.9966 81.142 36.15 81.4067 36.3034 81.6885C36.5676 82.1582 37.1727 82.3461 37.6499 82.0814C38.1187 81.8252 38.3062 81.2018 38.042 80.7321C37.9653 80.604 37.8971 80.4759 37.8204 80.3478C38.1443 80.5528 38.4681 80.7748 38.8175 80.9968C39.201 81.2274 39.7039 81.1676 40.0192 80.8517C40.1726 80.6979 40.2664 80.5186 40.2919 80.3307C40.3516 80.3307 40.4198 80.3222 40.4879 80.3051C40.7095 80.2539 40.9141 80.1087 41.0675 79.9123C41.1016 80.2283 41.2891 80.5442 41.5533 80.6979C42.0476 80.9883 42.6015 80.7919 42.9169 80.3564C43.1214 80.0745 43.2237 79.7586 43.2578 79.4341C43.6839 79.5536 44.11 79.6903 44.5447 79.8098C45.3373 80.0318 46.1639 79.1266 45.6952 78.3752C44.8089 76.9747 43.0958 75.7962 41.3913 75.8047C40.5817 75.8047 39.7039 76.1122 39.3033 76.8722C39.1499 77.1711 39.0647 77.4785 39.0306 77.7859C39.0306 77.7774 39.0221 77.7774 39.0221 77.7688C38.5022 77.1198 37.8545 76.505 37.0534 76.2317C36.0733 75.8987 34.9909 76.3086 34.4455 77.1796C34.0961 77.7347 34.0279 78.3666 34.1216 78.99C33.9086 78.7851 33.6699 78.5972 33.4483 78.4264C32.8347 77.9653 32.1274 77.5724 31.3944 77.3589C30.7382 77.1625 29.8177 77.0344 29.2297 77.4785C28.8632 77.7518 28.5649 78.0592 28.4541 78.5203C28.3348 78.9729 28.3604 79.417 28.4456 79.8781C28.5223 80.3991 29.1189 80.7236 29.6217 80.5955ZM41.2635 79.2377C41.255 79.195 41.2465 79.1437 41.2294 79.101C41.2209 79.0754 41.2124 79.0498 41.2038 79.0156C41.2124 79.0242 41.2294 79.0413 41.2379 79.0498C41.2465 79.0669 41.255 79.084 41.2635 79.1096C41.2635 79.1181 41.272 79.1181 41.272 79.1266C41.272 79.1352 41.272 79.1437 41.2805 79.1608C41.2805 79.1779 41.2891 79.1864 41.2891 79.2035C41.2891 79.2035 41.2891 79.2035 41.2891 79.212C41.2805 79.212 41.272 79.2206 41.2635 79.2377Z" fill="#F4A200"/>
<path d="M28.1898 79.8545C30.6358 83.3301 34.326 85.6358 38.3487 86.857C42.3287 88.0696 46.5729 88.3429 50.6978 87.9159C52.6921 87.711 54.6778 87.3438 56.6039 86.7802C58.4703 86.2336 60.2686 85.4565 62.0754 84.7306C63.7713 84.0475 65.6293 83.3131 66.9502 81.998C68.2286 80.7256 68.6718 79.0091 68.1945 77.2585C67.7428 75.6018 66.6434 74.1842 65.6378 72.8264C65.1264 72.1432 64.598 71.4686 64.0952 70.7854C63.9248 70.5549 63.7543 70.3243 63.6009 70.0852C63.7032 70.034 63.8054 69.9827 63.9162 69.9229C64.5043 69.624 64.01 68.7359 63.4219 69.0263C61.0697 70.2218 58.7516 71.4686 56.4249 72.6898C52.2659 74.8674 48.0302 76.9852 43.4963 78.2576C38.6896 79.6069 33.7039 79.9143 28.7693 79.1116C28.4029 79.0603 27.9001 79.4446 28.1898 79.8545Z" fill="#BBCE00"/>
<path d="M102.192 19.3164C99.6861 16.635 96.9589 14.15 94.1124 11.8357C91.7346 9.90577 89.2205 8.14661 86.5785 6.60947C80.7235 3.20216 74.3061 0.700053 67.5136 0.0937394C65.6387 -0.0770531 63.7807 0.0168827 61.9058 0.127898C60.5763 0.204754 59.2553 0.392626 57.9599 0.682974C54.6957 1.41738 51.5083 2.65563 48.6788 4.45749C46.8806 5.59326 45.1249 6.77173 43.6079 8.26616C42.4915 8.96641 41.4091 9.73498 40.4205 10.5975C39.1251 11.7332 37.9575 13.074 36.9263 14.4574C35.9121 15.8237 35.1706 17.3523 34.4547 18.8895C33.9604 19.9484 33.5769 21.0585 33.2786 22.1857C32.8355 23.8681 32.5116 25.6016 32.3241 27.3351C32.0003 30.435 32.1877 33.6118 32.5883 36.6946C32.9463 39.4785 33.5854 42.2282 34.3951 44.9182C36.2615 51.1009 38.7842 57.0103 42.0398 62.5867C44.9971 67.6507 48.372 72.6037 52.4714 76.8223C54.3974 78.8035 56.4855 80.6993 58.7865 82.2364C60.5251 83.3978 62.4257 84.3457 64.3347 85.1911C65.7665 85.8316 67.2494 86.344 68.7579 86.7453C72.3203 87.7018 76.0191 88.2312 79.7093 88.1629C83.4422 88.0946 87.158 87.6847 90.7631 86.677C94.334 85.6779 97.8282 84.3628 101.033 82.467C104.178 80.6053 107.169 78.4363 109.632 75.7207C111.038 74.1664 112.393 72.5866 113.518 70.8189C114.626 69.0768 115.555 67.181 116.331 65.2682C117.123 63.2955 117.558 61.2545 117.958 59.1709C118.274 57.5398 118.41 55.8831 118.402 54.2264C118.385 50.913 117.993 47.6509 117.064 44.4656C116.152 41.3401 115.001 38.3 113.535 35.388C111.959 32.271 110.058 29.3078 108.038 26.4641C106.257 23.9449 104.297 21.5624 102.192 19.3164Z" fill="#E0E0E0"/>
<path d="M129.513 31.8439C127.936 31.7243 124.723 34.9523 124.408 35.1999C125.184 33.065 126.513 29.9054 126.368 27.5313C126.13 24.8414 122.098 30.6483 121.502 33.9275C121.8 30.0847 121.732 26.8226 120.292 25.0036C119.107 24.8755 118.067 32.1854 119.9 36.2161C118.655 36.1478 117.42 36.1222 116.175 36.088C114.82 36.071 113.465 36.0283 112.11 35.9514C112.05 36.498 111.999 37.0445 111.974 37.591C112.664 37.5739 113.329 37.8131 113.712 38.4364C114.181 39.205 114.283 40.1358 114.292 41.024C114.292 41.3143 114.283 41.6046 114.266 41.895C115.349 41.7669 116.422 41.6217 117.488 41.4424C120.062 40.9983 122.618 40.2298 124.936 38.9744C127.135 37.7789 129.249 36.0454 130.34 33.4408C130.646 32.7661 130.203 31.9036 129.513 31.8439Z" fill="#A2AA00"/>
<path d="M123.361 80.1626C122.279 79.0097 117.728 79.2318 117.327 79.1976C119.33 78.1387 122.441 76.704 123.924 74.8509C125.552 72.6989 118.674 74.2788 116.032 76.3027C118.836 73.6639 120.967 71.2045 121.137 68.8903C120.344 68.0022 114.668 72.7075 113.313 76.9175C112.444 76.0294 111.541 75.1754 110.646 74.3129C109.649 73.3821 108.686 72.4342 107.731 71.4692C107.322 71.8279 106.913 72.2036 106.529 72.5879C107.049 73.0405 107.382 73.6639 107.245 74.3898C107.075 75.2779 106.529 76.0294 105.941 76.6955C105.745 76.9175 105.549 77.1225 105.345 77.3274C106.231 77.9594 107.126 78.5827 108.029 79.172C110.237 80.581 112.631 81.7339 115.197 82.3658C117.634 82.9636 120.353 83.1087 122.91 81.9132C123.574 81.5972 123.822 80.6664 123.361 80.1626Z" fill="#A2AA00"/>
<path d="M62.8508 16.1144C60.277 14.8505 58.6151 12.2715 56.1435 10.871C57.5924 9.88045 58.9219 8.7276 60.3366 7.68577C60.1832 7.48935 60.0468 7.2844 59.919 7.07091C59.8508 7.0026 59.7826 6.93428 59.7145 6.85742C58.9134 7.4552 58.1293 8.07859 57.3452 8.69344C56.8509 9.07772 56.3566 9.45347 55.8452 9.81213C55.5981 9.98292 55.3509 10.1452 55.1038 10.3074C54.8311 10.4868 54.6606 10.6234 54.6606 10.9735C54.6606 11.1443 54.7629 11.3493 54.9248 11.4176C56.3055 12.0239 57.4219 13.0913 58.5213 14.099C59.4844 14.9871 60.4644 15.9094 61.5894 16.6011C59.7059 17.9931 58.4531 20.128 56.6634 21.6224C56.4163 21.8274 56.2288 22.0494 56.331 22.3825C56.4163 22.6813 56.8339 22.9632 57.0469 23.1852C57.5327 23.689 57.9929 24.2099 58.4361 24.7479C58.4446 24.7565 58.4531 24.765 58.4617 24.7736C57.2088 25.4226 56.118 26.3534 55.0953 27.3354C54.8225 27.6002 54.5583 27.8649 54.2941 28.1382C53.5868 27.5575 52.6749 26.8658 51.7203 26.9426C51.7118 26.9682 51.7033 26.9939 51.7033 27.0109C51.6351 27.2927 51.5669 27.5831 51.5073 27.8649C51.4988 27.8905 51.4988 27.9161 51.4902 27.9503C51.5584 27.9759 51.6266 27.9845 51.7203 27.9759C52.3936 27.9161 53.0839 28.4627 53.5868 28.8811C52.9561 29.5472 52.334 30.2218 51.6863 30.8709C51.9419 31.1014 52.1976 31.3405 52.4448 31.5796C53.5186 30.4866 54.5328 29.3423 55.6237 28.2663C56.6549 27.25 57.7884 26.2082 59.1179 25.5848C59.7145 26.3534 60.2855 27.1476 60.8224 27.9674C61.0866 27.7368 61.3508 27.5148 61.632 27.3013C60.4389 25.4994 59.1008 23.7317 57.5583 22.2031C58.4361 21.4346 59.1946 20.555 59.9616 19.6754C60.8224 18.6848 61.7173 17.6515 62.8678 16.994C63.1831 16.8232 63.2002 16.2852 62.8508 16.1144Z" fill="#AAAAAA"/>
<path d="M108.992 36.4829C107.781 36.628 106.656 37.1404 105.591 37.7809C104.884 36.8842 103.98 36.0388 102.941 35.5606C102.659 35.4325 102.335 35.4837 102.174 35.7655C102.029 36.0132 102.105 36.406 102.378 36.5341C103.247 36.9355 104.04 37.6272 104.645 38.3872C104.031 38.7971 103.443 39.2326 102.864 39.634C102.276 40.0439 102.838 41.0089 103.435 40.599C104.33 39.9756 105.216 39.3436 106.154 38.78C107.014 38.2591 107.977 37.7211 108.992 37.6016C109.298 37.5674 109.554 37.3625 109.546 37.0379C109.554 36.7561 109.298 36.4487 108.992 36.4829Z" fill="#AAAAAA"/>
<path d="M101.953 70.9571C100.607 71.273 99.2855 71.8196 98.0839 72.5113C97.76 72.6991 97.7259 73.2542 98.0924 73.425C99.0895 73.9032 99.7713 74.8255 100.581 75.577C99.0554 76.3627 97.5299 77.1483 96.0214 77.9596C96.0129 77.951 96.0129 77.9425 96.0044 77.9339C95.3907 77.1056 94.9646 76.1406 94.2402 75.3891C93.7629 74.8938 93.0215 75.6539 93.4987 76.1492C94.155 76.8238 94.5385 77.7119 95.0925 78.4719C94.4703 78.8221 93.8396 79.1722 93.226 79.5309C92.638 79.8724 93.1749 80.7862 93.7715 80.4446C96.3964 78.9075 99.1151 77.5326 101.808 76.1321C102.192 75.9357 102.106 75.4233 101.8 75.2183C100.896 74.6035 100.257 73.6727 99.4049 72.998C100.308 72.554 101.263 72.2039 102.243 71.9733C102.908 71.8281 102.618 70.8034 101.953 70.9571Z" fill="#AAAAAA"/>
<path d="M43.783 17.9249C42.7433 19.778 41.9507 21.7677 41.4734 23.8514C41.0047 25.918 40.8428 28.0529 40.8428 30.1707C40.8428 31.4517 42.82 31.4346 42.82 30.1536C42.82 28.2066 42.9649 26.2681 43.3825 24.3638C43.8086 22.4424 44.533 20.632 45.4961 18.9155C46.1267 17.7968 44.4052 16.8062 43.783 17.9249Z" fill="white"/>
<path d="M54.9069 49.3421C52.6569 46.302 51.9325 42.5616 52.5376 38.8554C52.6229 38.326 52.3927 37.788 51.8388 37.6428C51.353 37.5147 50.7138 37.8136 50.6286 38.3431C49.9468 42.5531 50.6371 46.8827 53.2109 50.3498C53.5348 50.7853 54.0717 50.9902 54.566 50.6913C54.9921 50.4437 55.2307 49.7776 54.9069 49.3421Z" fill="white"/>
<path d="M48.1416 52.4842C46.2922 48.9573 44.1786 45.1657 44.153 41.0753C44.1445 39.7943 42.1673 39.8114 42.1758 41.0923C42.2014 45.55 44.4258 49.649 46.4456 53.5004C46.6927 53.9786 47.3575 54.1153 47.8007 53.842C48.2779 53.5517 48.3887 52.9624 48.1416 52.4842Z" fill="white"/>
<path d="M64.3253 69.1527C61.4106 66.7018 59.4163 63.3201 57.9845 59.8274C57.78 59.3236 57.3283 58.982 56.7573 59.1443C56.28 59.2809 55.8709 59.8701 56.0755 60.374C57.6351 64.1741 59.7572 67.8888 62.9361 70.5703C63.3452 70.9204 63.9332 70.9631 64.3338 70.5617C64.6917 70.1945 64.7344 69.5028 64.3253 69.1527Z" fill="white"/>
<path d="M71.4246 59.5571C69.3706 57.0208 67.1974 54.4248 65.902 51.3932C65.6889 50.8979 65.2457 50.5478 64.6747 50.7101C64.206 50.8467 63.7799 51.4359 63.9929 51.9398C65.4332 55.3129 67.7428 58.1481 70.0354 60.9747C70.3763 61.3931 71.0922 61.3163 71.4331 60.9661C71.8422 60.5477 71.7655 59.9756 71.4246 59.5571Z" fill="white"/>
<path d="M79.973 75.2832C77.1605 73.7973 74.1606 72.4993 72.0896 69.9801C71.7487 69.5617 71.0414 69.6386 70.6919 69.9887C70.2829 70.4071 70.3596 70.9707 70.7005 71.3892C72.8737 74.0365 76.0356 75.437 78.9929 76.9997C80.1093 77.5975 81.0979 75.881 79.973 75.2832Z" fill="white"/>
</svg>
