<svg width="447" height="148" viewBox="0 0 447 148" fill="none" xmlns="http://www.w3.org/2000/svg">
<path opacity="0.51" d="M446.237 97.4964C446.51 92.6785 443.431 89.0047 437 86.475C430.569 83.9453 427.193 85.5381 426.872 91.2536C426.442 98.8164 428.522 102.726 433.115 102.984C437.843 103.251 441.335 102.703 443.589 101.338C445.255 100.262 446.137 98.9817 446.237 97.4964ZM21.4258 70.3207C23.9558 70.4624 25.2956 69.1713 25.4533 66.3844C25.6109 63.5976 24.3656 62.2908 21.7253 62.031C19.2111 61.7712 17.8634 63.0701 17.6979 65.9672C17.4851 68.7226 18.754 70.1711 21.4258 70.3207ZM0.145859 63.7865C0.067044 65.1642 0.539938 65.8806 1.58029 65.9436C1.91971 65.9872 2.26463 65.9369 2.57736 65.798C2.89008 65.6592 3.1586 65.4372 3.35362 65.1563C3.48654 64.8304 3.56378 64.4844 3.58217 64.1329C3.60936 63.8822 3.58494 63.6285 3.5104 63.3875C3.43585 63.1466 3.31277 62.9233 3.1487 62.7316C2.59699 62.1176 1.74579 61.9444 0.57933 62.2357C0.513706 62.7714 0.367579 63.2943 0.145859 63.7865ZM156.309 29.3917C147.94 22.1144 137.266 18.0242 126.171 17.8428C116.839 17.5332 110.271 23.2512 106.467 34.9969C105.042 39.3112 104.088 43.7667 103.622 48.2857C102.723 46.7701 101.705 45.3276 100.579 43.9715C96.5599 39.605 91.3844 37.3561 85.053 37.2248C79.1839 37.0044 75.4875 41.1033 73.9637 49.5216C73.6397 51.1025 73.4316 52.7049 73.3411 54.316L73.1756 54.1349C70.7271 51.2326 68.3442 49.7263 66.0271 49.6161C62.575 49.5374 59.764 52.2534 57.5939 57.7641C56.0327 61.2542 55.0607 64.9783 54.7172 68.7855V69.3051C53.2039 65.4319 49.5706 63.4323 43.8092 63.3378C40.365 63.141 38.5208 64.991 38.2922 68.8485C38.1661 71.0213 40.2993 73.0944 44.6919 75.0678C49.19 76.9567 54.0009 77.9925 58.8786 78.1223L60.9514 78.2404C63.4104 85.5093 67.4063 89.2461 72.9391 89.4508C77.8887 89.6082 81.7165 88.2148 84.4224 85.2705C85.8976 83.6264 87.1147 81.7684 88.0322 79.7598C89.6085 84.3415 92.4642 89.7945 96.5993 96.1187C104.481 107.954 112.903 114.01 121.867 114.288C127.647 114.388 132.376 113.22 136.054 110.785C137.773 109.47 139.315 107.937 140.641 106.227C141.166 112.698 144.264 119.028 149.933 125.215C157.515 133.686 166.264 138.032 176.179 138.252C191.138 138.777 203.249 133.778 212.512 123.255C217.141 117.999 220.668 111.869 222.884 105.227C225.614 108.615 228.616 111.775 231.861 114.674C239.096 121.402 245.995 124.843 252.558 124.995C257.832 125.216 263.076 124.088 267.793 121.72C270.22 120.424 272.424 118.747 274.319 116.752C274.644 123.092 277.337 129.338 282.397 135.489C289.096 143.571 296.245 147.717 303.843 147.927C313.511 148.242 322.706 144.568 331.428 136.906C336.859 132.228 341.322 126.534 344.566 120.145C345.189 121.098 345.835 122.051 346.474 123.011C351.455 130.658 357.571 134.628 364.822 134.922C371.852 135.095 377.742 131.925 382.492 125.412C386.828 119.373 389.294 112.196 389.585 104.771C389.733 102.467 389.395 100.157 388.592 97.9924C388.596 97.9688 388.594 97.9447 388.587 97.9218C388.58 97.899 388.569 97.8778 388.553 97.8599C388.537 97.8419 388.518 97.8276 388.496 97.8179C388.474 97.8081 388.45 97.8032 388.427 97.8034V97.2917C388.523 97.5127 388.571 97.7515 388.568 97.9924C392.809 100.535 396.812 101.929 400.611 102.125C403.268 102.166 405.919 101.854 408.493 101.196C413.511 100.1 416.117 97.89 416.311 94.5679C416.485 91.5842 415.042 88.6399 411.976 85.7035C408.499 82.1753 403.763 80.1681 398.807 80.1219C396.343 80.0805 393.883 80.3449 391.485 80.9091C391.579 70.9757 388.905 61.2118 383.761 52.71C377.456 42.46 369.283 37.1645 359.242 36.8234C352.206 36.6502 345.517 41.6151 339.175 51.718C337.047 55.2377 335.106 58.8667 333.359 62.5899C329.959 57.5673 324.968 52.2796 318.384 46.7269C305.605 36.2303 293.746 30.8403 282.807 30.5569C275.556 30.2577 269.414 31.7456 264.38 35.0206C262.307 28.0272 258.62 21.6176 253.614 16.3077C243.941 5.86883 231.504 0.439456 216.303 0.0195911C204.218 -0.431763 193.641 6.91587 184.572 22.0625C179.289 31.1253 174.755 40.6037 171.016 50.4033C167.851 42.3336 162.81 35.1315 156.309 29.3917Z" fill="#9CE1FF" fill-opacity="0.5"/>
</svg>
