<svg width="420" height="139" viewBox="0 0 420 139" fill="none" xmlns="http://www.w3.org/2000/svg">
<path opacity="0.51" d="M419.125 91.601C419.382 87.0744 416.489 83.6227 410.446 81.246C404.404 78.8693 401.232 80.3658 400.931 85.7356C400.526 92.8411 402.481 96.5147 406.796 96.7563C411.239 97.0078 414.519 96.4925 416.637 95.2104C418.202 94.1996 419.031 92.9964 419.125 91.601ZM20.0012 66.0685C22.3781 66.2016 23.637 64.9886 23.7851 62.3703C23.9332 59.752 22.7632 58.5241 20.2826 58.2801C17.9204 58.036 16.6542 59.2564 16.4987 61.9783C16.2987 64.567 17.4909 65.928 20.0012 66.0685ZM0.00796219 59.9295C-0.0660867 61.2238 0.378212 61.8969 1.35566 61.9561C1.67456 61.9971 1.99862 61.9498 2.29243 61.8193C2.58625 61.6889 2.83853 61.4804 3.02176 61.2164C3.14664 60.9102 3.21921 60.5852 3.23648 60.2549C3.26203 60.0193 3.23909 59.781 3.16905 59.5546C3.09902 59.3282 2.98337 59.1185 2.82922 58.9384C2.31088 58.3614 1.51115 58.1987 0.415222 58.4724C0.353567 58.9758 0.216276 59.467 0.00796219 59.9295ZM146.729 27.6145C138.865 20.7772 128.836 16.9343 118.412 16.7639C109.645 16.473 103.474 21.8453 99.9 32.8807C98.5613 36.9341 97.6651 41.1202 97.2268 45.3659C96.382 43.942 95.4263 42.5867 94.3685 41.3127C90.592 37.2101 85.7295 35.0972 79.7809 34.9739C74.2667 34.7668 70.7938 38.6179 69.3622 46.5271C69.0578 48.0124 68.8622 49.5179 68.7772 51.0316L68.6217 50.8614C66.3213 48.1346 64.0825 46.7195 61.9055 46.6159C58.6621 46.5419 56.0211 49.0937 53.9822 54.2712C52.5155 57.5503 51.6022 61.0492 51.2794 64.6262V65.1144C49.8577 61.4753 46.444 59.5966 41.0311 59.5079C37.7951 59.323 36.0624 61.0611 35.8477 64.6854C35.7292 66.7268 37.7334 68.6745 41.8604 70.5286C46.0865 72.3033 50.6065 73.2764 55.1892 73.3984L57.1367 73.5093C59.447 80.3387 63.2013 83.8495 68.3995 84.0418C73.0498 84.1898 76.6461 82.8806 79.1885 80.1143C80.5745 78.5696 81.718 76.824 82.5799 74.9368C84.0609 79.2415 86.744 84.3648 90.6291 90.3066C98.0339 101.426 105.947 107.116 114.369 107.378C119.799 107.471 124.242 106.374 127.698 104.086C129.313 102.85 130.762 101.411 132.008 99.8036C132.501 105.883 135.411 111.83 140.738 117.644C147.861 125.602 156.081 129.685 165.396 129.892C179.451 130.385 190.83 125.689 199.533 115.802C203.882 110.864 207.195 105.104 209.278 98.8643C211.842 102.048 214.663 105.016 217.712 107.74C224.51 114.061 230.991 117.294 237.157 117.437C242.113 117.644 247.039 116.585 251.471 114.36C253.752 113.142 255.822 111.566 257.602 109.693C257.908 115.649 260.438 121.517 265.192 127.296C271.486 134.89 278.202 138.785 285.341 138.982C294.424 139.278 303.063 135.827 311.258 128.627C316.361 124.232 320.554 118.883 323.602 112.88C324.187 113.775 324.794 114.67 325.394 115.573C330.074 122.757 335.82 126.487 342.632 126.764C349.238 126.926 354.771 123.948 359.234 117.829C363.308 112.155 365.625 105.412 365.899 98.4353C366.038 96.2706 365.72 94.1009 364.966 92.0669C364.969 92.0448 364.967 92.0222 364.961 92.0007C364.954 91.9792 364.943 91.9593 364.929 91.9425C364.914 91.9256 364.896 91.9121 364.875 91.903C364.855 91.8938 364.832 91.8892 364.81 91.8894V91.4087C364.9 91.6163 364.946 91.8406 364.943 92.0669C368.927 94.456 372.689 95.7652 376.258 95.9501C378.754 95.9885 381.244 95.695 383.663 95.0773C388.377 94.0467 390.826 91.9708 391.009 88.8495C391.171 86.0463 389.816 83.28 386.936 80.5211C383.669 77.2063 379.219 75.3205 374.562 75.2771C372.247 75.2382 369.937 75.4866 367.683 76.0167C367.772 66.6839 365.259 57.5104 360.426 49.5227C354.502 39.8925 346.824 34.9172 337.39 34.5967C330.78 34.434 324.495 39.0987 318.537 48.5907C316.537 51.8976 314.713 55.3071 313.072 58.8052C309.878 54.0863 305.188 49.1184 299.003 43.9014C286.997 34.0395 275.855 28.9754 265.577 28.7092C258.765 28.4281 252.994 29.826 248.264 32.9029C246.317 26.3324 242.852 20.3104 238.149 15.3216C229.061 5.51395 217.376 0.412883 203.095 0.0184065C191.74 -0.405655 181.803 6.49768 173.282 20.7284C168.319 29.2432 164.059 38.1485 160.546 47.3555C157.573 39.7738 152.837 33.0072 146.729 27.6145Z" fill="#9CE1FF" fill-opacity="0.5"/>
</svg>
