<svg width="429" height="142" viewBox="0 0 429 142" fill="none" xmlns="http://www.w3.org/2000/svg">
<path opacity="0.51" d="M0.0160245 93.5424C-0.246119 88.9199 2.70804 85.395 8.8785 82.9679C15.049 80.5408 18.2879 82.0691 18.5955 87.5527C19.0088 94.8088 17.0125 98.5602 12.6065 98.807C8.06938 99.0638 4.71949 98.5376 2.5568 97.2284C0.958733 96.1961 0.111808 94.9674 0.0160245 93.5424ZM407.599 67.4688C405.172 67.6048 403.886 66.366 403.735 63.6922C403.584 61.0184 404.778 59.7645 407.312 59.5153C409.724 59.266 411.017 60.5123 411.176 63.2919C411.38 65.9355 410.163 67.3253 407.599 67.4688ZM428.016 61.1996C428.092 62.5215 427.638 63.2088 426.64 63.2692C426.314 63.3111 425.983 63.2628 425.683 63.1296C425.383 62.9964 425.125 62.7834 424.938 62.5139C424.811 62.2011 424.737 61.8692 424.719 61.532C424.693 61.2914 424.716 61.048 424.788 60.8168C424.859 60.5856 424.978 60.3715 425.135 60.1875C425.664 59.5984 426.481 59.4322 427.6 59.7117C427.663 60.2257 427.803 60.7274 428.016 61.1996ZM278.186 28.1998C286.216 21.2176 296.457 17.2932 307.102 17.1192C316.055 16.8221 322.357 22.3083 326.007 33.5776C327.374 37.7169 328.289 41.9917 328.737 46.3274C329.599 44.8733 330.575 43.4893 331.656 42.1883C335.512 37.9988 340.478 35.8411 346.552 35.7152C352.183 35.5037 355.73 39.4364 357.192 47.5133C357.503 49.03 357.702 50.5674 357.789 52.1132L357.948 51.9394C360.297 49.1548 362.583 47.7096 364.807 47.6039C368.119 47.5284 370.816 50.1342 372.898 55.4215C374.396 58.77 375.328 62.3431 375.658 65.9959V66.4944C377.11 62.7783 380.596 60.8598 386.123 60.7691C389.428 60.5803 391.197 62.3553 391.417 66.0564C391.538 68.141 389.491 70.13 385.277 72.0234C380.961 73.8357 376.345 74.8295 371.665 74.954L369.676 75.0673C367.317 82.0414 363.483 85.6267 358.175 85.8231C353.426 85.9741 349.754 84.6372 347.157 81.8123C345.742 80.2349 344.574 78.4522 343.694 76.5251C342.182 80.921 339.442 86.1529 335.474 92.2206C327.912 103.576 319.831 109.386 311.231 109.653C305.686 109.749 301.149 108.629 297.62 106.292C295.97 105.03 294.491 103.56 293.219 101.919C292.715 108.128 289.743 114.2 284.303 120.137C277.029 128.264 268.635 132.434 259.122 132.645C244.77 133.149 233.15 128.353 224.262 118.256C219.821 113.213 216.437 107.332 214.311 100.96C211.692 104.211 208.812 107.242 205.698 110.023C198.756 116.479 192.137 119.78 185.841 119.926C180.78 120.137 175.749 119.056 171.224 116.784C168.894 115.54 166.78 113.931 164.962 112.018C164.65 118.1 162.066 124.093 157.212 129.994C150.784 137.749 143.925 141.727 136.636 141.928C127.36 142.23 118.538 138.705 110.169 131.354C104.958 126.865 100.676 121.403 97.5637 115.273C96.9663 116.187 96.3463 117.101 95.7338 118.022C90.9547 125.359 85.0867 129.168 78.1298 129.45C71.3847 129.616 65.7334 126.575 61.1762 120.326C57.0158 114.532 54.6494 107.646 54.3705 100.522C54.2283 98.3111 54.5529 96.0954 55.3233 94.0183C55.32 93.9956 55.3217 93.9725 55.3282 93.9506C55.3347 93.9286 55.3459 93.9084 55.361 93.8911C55.3761 93.8739 55.3947 93.8602 55.4156 93.8508C55.4365 93.8415 55.4592 93.8367 55.4821 93.837V93.346C55.39 93.5581 55.3436 93.7871 55.346 94.0183C51.2777 96.4579 47.4363 97.7949 43.7915 97.9837C41.2425 98.023 38.6995 97.7232 36.2297 97.0924C31.4153 96.04 28.9148 93.9201 28.7283 90.7326C28.562 87.87 29.9458 85.0451 32.8873 82.2277C36.2237 78.8426 40.7677 76.9168 45.5232 76.8725C47.8871 76.8328 50.2468 77.0865 52.5481 77.6278C52.4573 68.0972 55.0232 58.7293 59.9587 50.5723C66.0082 40.7381 73.8498 35.6573 83.4836 35.33C90.2338 35.1638 96.6513 39.9273 102.736 49.6206C104.778 52.9975 106.641 56.4793 108.317 60.0516C111.578 55.2326 116.368 50.1594 122.684 44.8319C134.944 34.761 146.322 29.5895 156.818 29.3176C163.775 29.0306 169.668 30.4582 174.498 33.6003C176.487 26.8905 180.025 20.7409 184.827 15.6463C194.108 5.63082 206.041 0.421633 220.625 0.0187966C232.22 -0.414253 242.368 6.63539 251.069 21.1677C256.138 29.863 260.488 38.957 264.075 48.3592C267.112 40.6168 271.948 33.7068 278.186 28.1998Z" fill="#9CE1FF"/>
</svg>
