<svg width="116" height="97" viewBox="0 0 116 97" fill="none" xmlns="http://www.w3.org/2000/svg">
<path d="M70.0457 40.1098C69.7637 40.5671 69.7603 40.9974 69.9891 41.3522C70.1439 41.615 70.412 41.8229 70.7529 41.9998C71.1677 42.1478 71.5548 42.1322 71.9811 42.0195C72.3625 41.8922 72.716 41.646 72.9275 41.2871C73.1701 40.9798 73.2487 40.6033 73.154 40.2764C73.0326 39.8585 72.7461 39.5761 72.2284 39.3268C72.2284 39.3268 71.9361 39.275 71.3861 39.1354C70.8765 39.1271 70.4085 39.4705 70.0457 40.1098Z" fill="#FAE2A7"/>
<path d="M50.6611 42.2C50.2035 43.0959 50.4173 43.6845 51.292 44.0745C51.8501 44.3259 52.4671 44.3217 53.2055 44.1065C53.8225 43.9017 54.3806 43.5366 54.8451 43.0338C55.3512 42.5311 55.6401 42.0335 55.5638 41.5555C55.6101 40.9783 55.223 40.5511 54.5378 40.2728C54.5378 40.2728 54.4234 40.2128 54.1368 40.1652C53.8283 40.1104 53.484 40.1238 53.2032 40.1921C52.117 40.3897 51.3139 41.0652 50.6611 42.2Z" fill="#FAE2A7"/>
<path d="M59.3839 37.3866C59.0788 37.9535 58.991 38.5225 59.2002 38.9539C59.3226 39.3635 59.5826 39.6066 59.9027 39.7369C60.3464 39.9397 60.8213 39.9449 61.2593 39.7183C61.6903 39.557 62.0253 39.2228 62.2992 38.8039C62.5661 38.3818 62.6609 37.9722 62.5754 37.5604C62.4956 37.1187 62.2576 36.8001 61.8162 36.6035C61.785 36.5973 61.4915 36.5084 60.8756 36.3604C60.2597 36.3708 59.7432 36.706 59.3839 37.3866Z" fill="#FAE2A7"/>
<path d="M47.7844 35.898C47.4944 36.3987 47.4644 36.7794 47.6088 37.0825C47.7798 37.306 47.952 37.5004 48.3541 37.6453C48.7516 37.8377 49.1964 37.7932 49.6656 37.6453C50.107 37.4549 50.5068 37.2025 50.8107 36.8291C51.1654 36.4194 51.2948 36.016 51.2833 35.6622C51.2937 35.2329 51.0545 34.9618 50.5703 34.7539C50.6431 34.8139 50.3196 34.7498 49.6563 34.5512C48.866 34.5667 48.2432 35.0043 47.7844 35.898Z" fill="#FAE2A7"/>
<path d="M48.0371 51.8196C48.1458 52.1103 48.4312 52.4041 48.9095 52.6089C49.27 52.7496 50.0292 52.6823 51.1119 52.3358C52.1553 51.9686 53.1721 51.4927 54.1428 50.9175C55.1631 50.2441 55.8159 49.6182 56.0436 49.0317C56.2966 48.2869 55.9442 47.7189 54.9089 47.2607C54.9447 47.269 54.6812 47.2628 54.219 47.2193C53.5719 47.1841 52.9561 47.1903 52.3783 47.24C50.5145 47.3776 49.2423 48.0086 48.6542 49.0824C47.9851 50.2906 47.7436 51.1834 48.0371 51.8196Z" fill="#FAE2A7"/>
<path d="M44.7433 44.2727C44.4406 44.8427 44.4926 45.3961 44.8901 45.9796C45.2252 46.4275 45.5938 46.7317 46.0282 46.923C46.6187 47.1951 47.1479 47.1992 47.6309 47.0182C48.1 46.8289 48.4767 46.5403 48.6535 46.0975C48.8523 45.6289 48.8615 45.1644 48.6293 44.6917C48.3935 44.1796 47.9625 43.7482 47.2773 43.4731C47.2773 43.4731 46.9584 43.3717 46.3864 43.1927C45.6781 43.1896 45.1662 43.5672 44.7433 44.2727Z" fill="#FAE2A7"/>
<path d="M79.3198 32.0324C79.7104 32.2517 80.1333 32.2941 80.51 32.2031C80.8451 32.0696 81.0889 31.9144 81.29 31.5938C81.4309 31.3538 81.5014 31.0527 81.3466 30.7517C81.2461 30.4145 80.9479 30.1724 80.4753 29.9665L79.782 29.7307C79.2378 29.6303 78.8669 29.9179 78.5318 30.4817C78.3169 30.8407 78.3631 31.2327 78.6092 31.51C78.7652 31.7314 79.0287 31.9434 79.3198 32.0324Z" fill="#FAE2A7"/>
<path d="M68.5607 36.9524C68.9825 36.8334 69.2528 36.6048 69.4181 36.2489C69.6214 35.9272 69.5741 35.531 69.4065 35.1503C69.1858 34.7221 68.7363 34.3983 68.1459 34.1045C68.1459 34.1045 67.8951 34.0538 67.4873 33.9441C66.9673 33.9265 66.5964 34.2141 66.2543 34.7821C65.9424 35.3883 65.9724 35.861 66.3456 36.3224C66.4866 36.46 66.7142 36.6224 67.1106 36.8117C67.6305 37.0186 68.0974 37.0641 68.5607 36.9524Z" fill="#FAE2A7"/>
<path d="M62.557 33.3345C62.7303 32.9372 62.7395 32.5131 62.6101 32.0931C62.4414 31.6803 62.1317 31.3079 61.6615 31.1041L60.4759 30.8962C59.6093 30.8569 58.9703 31.2076 58.6121 31.8159C58.3718 32.3217 58.4862 32.7676 58.9368 33.2807C59.2569 33.6489 59.6717 33.9158 60.068 34.1062C60.6677 34.3679 61.1727 34.4175 61.6152 34.2251C62.0624 34.0358 62.3293 33.7689 62.557 33.3345Z" fill="#FAE2A7"/>
<path d="M55.6982 30.3844C56.6584 29.7761 57.2361 29.173 57.3817 28.5006C57.5319 27.8261 57.1795 27.2551 56.1835 26.8434C56.0229 26.7668 55.6878 26.712 55.1308 26.651C54.3578 26.5899 53.6634 26.5879 52.9412 26.6903C50.7469 26.9261 49.2551 27.7506 48.4555 29.1689C47.9344 30.0947 48.3261 30.9099 49.6734 31.5068C50.4372 31.8368 51.3813 31.8895 52.5795 31.633C53.7327 31.3702 54.7796 30.9657 55.6982 30.3844Z" fill="#FAE2A7"/>
<path d="M42.7579 43.9554C42.9219 43.5902 42.9173 43.2437 42.8237 42.8733C42.7001 42.4585 42.4181 42.1782 42.0611 41.9909C42.0611 41.9909 41.7237 41.933 41.2164 41.8823C40.5925 41.9299 40.1268 42.2392 39.8275 42.8092C39.3804 43.6275 39.645 44.2223 40.6329 44.6702C41.1529 44.8823 41.6174 44.9619 42.008 44.7612C42.3477 44.634 42.6296 44.3578 42.7579 43.9554Z" fill="#FAE2A7"/>
<path d="M44.19 36.7417C44.7955 35.9938 45.0116 35.2075 44.9168 34.4544C44.8325 33.6569 44.3633 33.0217 43.484 32.6369C42.9802 32.3834 42.2349 32.37 41.2851 32.5148C39.7899 32.7548 38.6379 33.6393 37.7759 35.1351C37.3171 35.9927 37.3737 36.7396 37.9145 37.4244C38.2785 37.7979 38.654 38.0668 39.0966 38.2613C40.0799 38.7113 41.0748 38.7661 42.0731 38.3979C42.9328 38.0834 43.6619 37.5517 44.19 36.7417Z" fill="#FAE2A7"/>
<path d="M34.3569 43.0419C35.0502 42.3054 35.3333 41.574 35.2143 40.7702C35.0999 39.8909 34.4181 39.2247 33.265 38.7106C32.9218 38.5275 32.4989 38.4509 31.9257 38.4654C31.3515 38.4778 30.7668 38.573 30.1717 38.694C28.8198 39.0819 28.0814 39.8485 27.9404 41.0785C27.5984 44.7322 29.6205 45.4853 33.9606 43.4112C34.0865 43.2695 34.2333 43.1847 34.3569 43.0419Z" fill="#FAE2A7"/>
<path d="M35.9642 35.2376C36.3085 34.6708 36.4298 34.1049 36.2519 33.568C36.0844 32.908 35.6742 32.4456 34.9115 32.1156C34.9115 32.1156 34.5337 32.0484 33.7826 31.8787C33.0073 31.8549 32.3983 32.2118 31.9685 32.9525C31.3861 34.0242 31.3191 34.917 31.7767 35.6225C31.9928 36.0135 32.3579 36.3083 32.8836 36.5204C33.4475 36.7397 34.0068 36.7573 34.6354 36.4883C35.2166 36.2328 35.6661 35.7756 35.9642 35.2376Z" fill="#FAE2A7"/>
<path d="M43.5153 52.1147C43.6817 51.7557 43.7533 51.4133 43.6574 51.0812C43.5661 50.7171 43.2449 50.4181 42.7226 50.1698C42.4511 50.0385 42.1426 50.0374 41.8317 50.0498C41.3002 50.115 40.8854 50.3891 40.5757 51.0057C40.1586 51.7143 40.4197 52.3029 41.3753 52.7105C41.8156 52.9071 42.2373 52.9422 42.6233 52.8098C43.0069 52.6453 43.3142 52.4302 43.5153 52.1147Z" fill="#FAE2A7"/>
<path d="M40.9289 71.7528C41.4038 71.5966 41.7308 71.3142 41.9515 70.9201C42.1225 70.5145 42.2127 70.107 42.0809 69.7273C41.9492 69.3156 41.7158 69.0342 41.3461 68.8884C40.9578 68.7063 40.5661 68.7156 40.1282 68.8718C39.7492 69.0404 39.4279 69.2939 39.2026 69.7211C38.9472 70.0666 38.9345 70.497 38.9761 70.8994C39.1148 71.2718 39.3886 71.5956 39.7549 71.7373C40.1513 71.9276 40.4956 71.909 40.9289 71.7528Z" fill="#FAE2A7"/>
<path d="M38.6724 61.6937C38.9012 61.2582 38.9936 60.8496 38.8515 60.472C38.7302 60.0624 38.5453 59.7479 38.1825 59.5658C37.7884 59.4148 37.384 59.4324 36.9091 59.6144C36.5186 59.7831 36.1511 60.0644 35.9685 60.5041C35.7478 60.893 35.6508 61.3047 35.779 61.7599C35.9119 62.1292 36.098 62.4406 36.4619 62.5865C36.8606 62.7685 37.2673 62.724 37.6787 62.6061C38.1178 62.4137 38.4425 62.122 38.6724 61.6937Z" fill="#FAE2A7"/>
<path d="M33.2665 56.7361C33.501 56.2716 33.6131 55.7792 33.4617 55.2837C33.3566 54.7944 33.0365 54.4613 32.5501 54.2596C32.0278 54.0548 31.5979 54.0475 31.078 54.2317C30.5511 54.4096 30.1281 54.7624 29.8901 55.233C29.6579 55.6923 29.5943 56.1961 29.7122 56.642C29.8647 57.1034 30.1651 57.5089 30.6493 57.7106C31.1253 57.9123 31.6002 57.9258 32.0971 57.6971C32.6483 57.5627 33.0365 57.2006 33.2665 56.7361Z" fill="#FAE2A7"/>
<path d="M36.7423 50.5475C37.0184 50.1265 37.0704 49.6672 36.9167 49.21C36.7076 48.7496 36.3228 48.3193 35.6434 48.0452C35.5995 48.0421 35.559 48.0234 35.3961 47.9645L34.8634 47.8238C34.719 47.8786 34.5642 47.9696 34.4463 48.1083C32.4277 50.6758 33.099 51.6213 36.376 51.0358C36.5447 50.8662 36.666 50.6934 36.7423 50.5475Z" fill="#FAE2A7"/>
<path d="M79.6809 72.375C79.2337 73.156 79.2545 73.8626 79.704 74.4191C79.9571 74.8133 80.3384 75.076 80.8202 75.2736C81.4095 75.5798 82.0635 75.5808 82.6401 75.3315C83.2017 75.1567 83.6003 74.7615 83.8869 74.2298C84.2324 73.7002 84.2971 73.2026 84.1515 72.6688C83.9343 72.076 83.5518 71.6188 82.8342 71.3416C82.8342 71.3416 82.7129 71.2423 82.4818 71.1595C82.2056 71.0271 81.9503 70.9847 81.6915 70.9795C80.9242 70.9164 80.1951 71.4016 79.6809 72.375ZM95.8543 71.5092C95.4372 72.2188 95.5366 72.9388 96.2484 73.6619C96.6297 74.114 97.0665 74.504 97.5876 74.7212C98.4646 75.105 99.2388 75.1629 100.06 74.9995C100.75 74.8536 101.306 74.4833 101.654 73.9133C102.036 73.4012 102.115 72.8291 101.884 72.2809C101.641 71.6105 101.097 71.1212 100.222 70.723L99.8235 70.5771C99.3693 70.4157 98.9626 70.3061 98.5778 70.2782C97.2952 70.1302 96.3778 70.5471 95.8543 71.5092ZM93.0164 76.245C93.2036 75.7732 93.184 75.2612 92.9552 74.7491C92.6351 74.1822 92.1348 73.6991 91.4242 73.3743C91.378 73.3702 91.2532 73.3464 91.0625 73.2388C90.7401 73.1064 90.4859 73.0536 90.2248 73.0516C89.4136 72.9854 88.7053 73.4043 88.2443 74.296C87.8595 75.0481 87.8144 75.6315 88.2801 76.1012C88.4453 76.3288 88.9029 76.6091 89.6204 76.9308C90.4143 77.266 91.1896 77.3684 91.8009 77.1615C92.3878 77.0705 92.7715 76.7539 93.0164 76.245ZM100.974 66.7485C102.259 67.2968 103.652 67.5037 105.207 67.3568C106.648 67.1809 107.873 66.8147 108.981 66.1465C110.031 65.5175 110.582 64.8006 110.662 64.0672C110.721 63.2075 110.095 62.5186 108.821 61.9424C108.668 61.8679 108.317 61.8524 107.685 61.7717C106.836 61.66 106.042 61.7169 105.275 61.81C102.809 62.0758 101.148 63.0741 100.256 64.7158C100.031 65.143 99.9898 65.5248 100.241 65.9572C100.407 66.3782 100.7 66.6223 100.974 66.7485ZM76.8857 59.8331C76.8765 59.8641 76.8534 59.9407 76.8442 59.9831L76.9851 59.9314C76.9435 59.92 76.9123 59.8383 76.8857 59.8331ZM84.2509 78.4763C83.2964 79.0463 82.1236 79.0329 80.6943 78.3853C79.3851 77.8039 78.4006 76.9184 77.7038 75.7432C77.683 75.6222 77.0279 74.055 75.7083 70.9599C75.52 70.4592 75.2912 69.8737 75.1352 69.2209C74.8428 68.1885 74.6279 66.973 74.4685 65.5723C74.4153 65.3727 74.3749 65.1751 74.3853 64.9382C74.1253 61.9982 74.4049 59.5476 75.3466 57.5149C75.431 57.3028 75.5315 57.0504 75.6598 56.8735C75.8366 56.4762 76.1462 56.2559 76.4894 56.2797C76.5749 56.2942 76.6928 56.3593 76.7309 56.3666C76.8603 56.3831 76.9019 56.3966 76.9331 56.4359C76.9782 56.4452 77.0857 56.5424 77.0776 56.7752C77.2035 56.8042 77.252 56.8021 77.2347 56.8486C77.4878 56.9242 78.2423 57.4135 79.5006 58.2679C80.6423 59.0169 81.7642 59.6459 82.8689 60.1983C83.0711 60.2779 83.2306 60.3421 83.353 60.399C83.8707 60.6131 84.4369 60.8303 85.0054 61.0072C87.0425 61.6507 89.2449 62.0024 91.6934 61.932C93.9304 61.8989 96.6424 61.5255 99.8177 60.8065C103.062 59.9324 105.414 59.4183 106.775 59.1917C109.059 58.7324 110.754 58.7635 111.908 59.2848C113.332 59.9262 114.071 60.9255 114.035 62.2827C114.059 63.5355 113.429 64.7965 112.253 66.1537C111.032 67.4913 109.577 68.5671 107.818 69.345C106.71 69.8592 105.606 70.1199 104.529 70.2399C105.512 70.9278 106.219 71.6778 106.606 72.4878C107.092 73.636 106.939 74.7026 106.032 75.6346C105.073 76.6039 103.612 77.087 101.721 77.1367C100.184 77.2112 98.49 76.9443 96.6539 76.3505C96.8735 76.9732 96.9474 77.6115 96.8423 78.2643C96.6539 79.3215 96.0635 79.9949 94.9554 80.266C93.7444 80.598 92.1521 80.3166 90.1208 79.4022C88.4927 78.6884 87.0345 77.7646 85.7703 76.5512C85.7403 76.5439 85.7403 76.5439 85.7403 76.5439C85.4075 77.4274 84.9095 78.0853 84.2509 78.4763Z" fill="#F29530"/>
<path d="M68.7232 28.1773C68.7567 28.227 68.7498 28.257 68.7856 28.3118C68.7914 28.2704 68.8122 28.1949 68.8122 28.1949L68.7232 28.1773ZM64.1405 18.7522C64.8246 19.0409 65.422 19.0667 66.0043 18.8174C66.5451 18.5557 66.8836 18.1915 67.1032 17.6412C67.3562 17.0598 67.3944 16.523 67.2037 15.9809C66.99 15.3923 66.5243 14.9175 65.8437 14.6464C65.8137 14.5906 65.4705 14.5326 64.8581 14.3464C64.1578 14.3413 63.6436 14.7095 63.2161 15.4606C62.7297 16.2726 62.695 17.0081 63.0682 17.7022C63.3051 18.1771 63.7072 18.5567 64.1405 18.7522ZM69.74 11.4654C70.4518 11.7944 71.1451 11.7892 71.8234 11.5223C72.3977 11.3175 72.8784 10.8913 73.1973 10.2882C73.5439 9.6789 73.626 9.11614 73.4561 8.53166C73.3405 7.9927 72.9719 7.52926 72.4138 7.2365C72.4081 7.22202 72.2763 7.1372 72.0048 6.97582C71.761 6.90341 71.523 6.81859 71.2526 6.80514C70.3628 6.73066 69.6742 7.23237 69.0514 8.2958C68.5926 9.19062 68.4574 9.94372 68.7243 10.5416C68.8954 10.9647 69.2281 11.2223 69.74 11.4654ZM76.3806 6.00756C75.8584 6.96859 75.6076 7.70203 75.7139 8.19444C75.8041 8.55857 76.0976 8.84925 76.5782 9.04683C77.1248 9.30751 77.7014 9.24648 78.4686 8.962C79.0984 8.67959 79.7166 8.24201 80.1996 7.66271C80.7288 7.05237 80.9044 6.45446 80.8998 5.90722C80.775 5.26275 80.322 4.75274 79.4947 4.36999L79.2243 4.20345C79.021 4.12896 78.7737 4.08448 78.5541 4.08345C77.7892 4.14138 77.0774 4.80034 76.3806 6.00756ZM89.5752 5.97238C88.8923 5.92997 88.2695 5.93618 87.6375 6.05411C85.6951 6.33446 84.3455 7.27168 83.5597 8.68684C83.1807 9.40476 83.1368 9.98303 83.4719 10.4361C83.6822 10.6678 84.0624 10.9378 84.6147 11.1903C85.6165 11.604 86.7304 11.7251 87.8431 11.4065C88.8993 11.1747 89.7624 10.6585 90.532 9.93441C91.2553 9.25166 91.6667 8.54408 91.7048 7.79926C91.7429 7.02341 91.3466 6.48858 90.517 6.06859C90.3506 5.99928 90.0571 5.98376 89.5752 5.97238ZM70.6332 30.9849C70.5789 31.0159 70.5662 31.0945 70.4576 31.1855C70.2508 31.3469 69.8983 31.3583 69.5771 31.2238C69.3448 31.1059 69.1473 30.9911 68.9069 30.9083C67.0107 29.8294 65.259 28.0387 63.7476 25.4132C63.0855 24.2794 62.5297 23.2439 62.2131 22.3263C61.952 21.7274 61.7637 21.1915 61.6574 20.7012C61.595 20.607 61.6088 20.5336 61.5776 20.4488C60.8427 17.5378 60.4083 16.1019 60.4291 16.0233C60.2442 14.6919 60.4995 13.5261 61.12 12.3478C61.8365 11.0713 62.7308 10.4103 63.7211 10.2768C64.4444 10.1682 65.1839 10.3813 65.9003 10.8623L65.913 10.8168C66.2158 9.26924 66.7369 7.68754 67.5862 6.22686C68.5487 4.44447 69.5921 3.30345 70.6968 2.87001C71.657 2.46243 72.5051 2.61449 73.2273 3.28897C73.6537 3.71724 73.9738 4.24069 74.1956 4.83241C75.1824 3.36139 76.3055 2.23277 77.4946 1.35347C78.9643 0.285898 80.3197 -0.137203 81.5064 0.0376225C82.6896 0.209345 83.4153 0.8859 83.7215 2.07037C83.8902 2.88553 83.7978 3.84655 83.4326 4.91723C84.3351 4.3762 85.3438 3.9624 86.4508 3.72965C88.1355 3.25276 89.8398 3.23621 91.5095 3.58482C93.1503 3.87758 94.3532 4.51896 95.0338 5.41688C95.8045 6.42239 95.8657 7.56858 95.1308 8.88132C94.567 9.87545 93.3375 10.8675 91.4148 11.8544C90.2373 12.4316 88.1898 13.3937 85.2918 14.633C82.5267 15.8578 80.2804 17.1002 78.6131 18.3312C77.8932 18.8226 77.2842 19.3833 76.6822 19.9419C75.6978 20.8212 74.8646 21.8091 74.1552 22.8518C73.8351 23.2729 73.5589 23.7218 73.3197 24.2308C72.6842 25.3656 72.1354 26.5977 71.6558 27.9983C71.1752 29.3628 70.8689 30.1262 70.7361 30.3383C70.7361 30.3383 70.7187 30.3776 70.669 30.4449C70.7546 30.6207 70.7742 30.7738 70.7592 30.8504C70.758 30.8493 70.7002 30.8762 70.6332 30.9849Z" fill="#F29530"/>
<path d="M72.4146 7.23759C72.3461 7.19568 72.273 7.16502 72.1953 7.13332C72.3426 7.20898 72.418 7.24372 72.4146 7.23759Z" fill="#F29530"/>
<path d="M68.7239 28.1783L68.814 28.1969C68.814 28.1969 68.7932 28.2714 68.7875 28.3138C68.7516 28.258 68.7586 28.228 68.7239 28.1783ZM39.7545 71.7357C40.1509 71.9271 40.4952 71.9085 40.9285 71.7523C41.4034 71.5961 41.7304 71.3137 41.9511 70.9196C42.1221 70.514 42.2123 70.1065 42.0805 69.7268C41.9488 69.3151 41.7154 69.0337 41.3456 68.8879C40.9574 68.7058 40.5657 68.7151 40.1277 68.8713C39.7487 69.0399 39.4275 69.2934 39.2022 69.7206C38.9468 70.0661 38.9341 70.4965 38.9757 70.8989C39.1144 71.2702 39.3882 71.594 39.7545 71.7357ZM36.4625 62.5869C36.8612 62.769 37.2679 62.7245 37.6793 62.6065C38.1183 62.4131 38.443 62.1214 38.673 61.6931C38.9018 61.2576 38.9942 60.849 38.8521 60.4714C38.7308 60.0617 38.5459 59.7473 38.1831 59.5652C37.789 59.4142 37.3846 59.4318 36.9097 59.6138C36.5191 59.7824 36.1517 60.0638 35.9691 60.5035C35.7484 60.8924 35.6514 61.3041 35.7796 61.7593C35.9114 62.1286 36.0985 62.44 36.4625 62.5869ZM30.6492 57.7104C31.1253 57.9121 31.6002 57.9256 32.0971 57.6969C32.6494 57.5635 33.0365 57.2014 33.2676 56.7359C33.5022 56.2714 33.6142 55.779 33.4629 55.2835C33.3577 54.7942 33.0376 54.4611 32.5512 54.2594C32.0289 54.0546 31.599 54.0473 31.0791 54.2315C30.5522 54.4094 30.1293 54.7622 29.8912 55.2328C29.659 55.6921 29.5954 56.1959 29.7133 56.6418C29.8658 57.1032 30.1662 57.5087 30.6492 57.7104ZM41.3745 52.7077C41.8148 52.9042 42.2365 52.9394 42.6225 52.807C43.0072 52.6436 43.3134 52.4284 43.5145 52.1129C43.6809 51.7539 43.7525 51.4115 43.6566 51.0794C43.5653 50.7153 43.2441 50.4163 42.7218 50.1681C42.4503 50.0367 42.1418 50.0356 41.8309 50.0481C41.2994 50.1132 40.8846 50.3874 40.5749 51.0039C40.1578 51.7115 40.4189 52.3001 41.3745 52.7077ZM34.4462 48.1084C32.4275 50.676 33.0989 51.6215 36.3759 51.036C36.5434 50.8663 36.6659 50.6936 36.741 50.5477C37.0172 50.1267 37.0692 49.6674 36.9155 49.2101C36.7063 48.7498 36.3216 48.3195 35.6421 48.0453C35.5982 48.0422 35.5578 48.0236 35.3948 47.9646L34.8622 47.824C34.7189 47.8798 34.564 47.9698 34.4462 48.1084ZM52.3795 47.2405C50.5156 47.3781 49.2434 48.0091 48.6553 49.0829C47.9874 50.2912 47.7448 51.1839 48.0383 51.8201C48.1469 52.1108 48.4323 52.4046 48.9107 52.6094C49.2712 52.7501 50.0303 52.6829 51.113 52.3363C52.1564 51.9691 53.1733 51.4932 54.1439 50.9181C55.1642 50.2446 55.817 49.6188 56.0447 49.0322C56.2977 48.2874 55.9453 47.7195 54.91 47.2612C54.9458 47.2695 54.6823 47.2633 54.2201 47.2198C53.5731 47.1847 52.9572 47.1909 52.3795 47.2405ZM27.9385 41.0771C27.5964 44.7309 29.6185 45.484 33.9586 43.4099C34.0845 43.2692 34.2313 43.1843 34.3549 43.0416C35.0482 42.305 35.3313 41.5737 35.2123 40.7699C35.0979 39.8906 34.4161 39.2244 33.263 38.7103C32.9198 38.5272 32.4969 38.4506 31.9237 38.4651C31.3495 38.4775 30.7648 38.5727 30.1697 38.6937C28.8178 39.0806 28.0794 39.8471 27.9385 41.0771ZM39.0994 38.2592C40.0827 38.7092 41.0776 38.7641 42.0759 38.3958C42.9344 38.0813 43.6636 37.5485 44.1916 36.7386C44.7971 35.9906 45.0132 35.2044 44.9184 34.4513C44.8341 33.6538 44.3649 33.0186 43.4856 32.6338C42.9818 32.3803 42.2365 32.3669 41.2867 32.5117C39.7915 32.7517 38.6395 33.6362 37.7775 35.132C37.3187 35.9896 37.3754 36.7365 37.9161 37.4213C38.2813 37.7968 38.6556 38.0648 39.0994 38.2592ZM32.8817 36.5203C33.4455 36.7396 34.0048 36.7572 34.6334 36.4882C35.2157 36.2327 35.6652 35.7755 35.9645 35.2365C36.3088 34.6696 36.4302 34.1038 36.2522 33.5669C36.0847 32.9069 35.6745 32.4445 34.9118 32.1145C34.9118 32.1145 34.534 32.0472 33.7829 31.8776C33.0076 31.8538 32.3987 32.2107 31.9688 32.9514C31.3864 34.0231 31.3194 34.9158 31.777 35.6213C31.9908 36.0134 32.3559 36.3082 32.8817 36.5203ZM66.2535 34.7813C65.9415 35.3875 65.9715 35.8603 66.3447 36.3217C66.4857 36.4593 66.7133 36.6217 67.1097 36.811C67.6308 37.0179 68.0976 37.0634 68.561 36.9517C68.9827 36.8327 69.2531 36.6041 69.4184 36.2482C69.6217 35.9265 69.5743 35.5303 69.4068 35.1496C69.1861 34.7213 68.7366 34.3976 68.1462 34.1038C68.1462 34.1038 67.8954 34.0531 67.4875 33.9434C66.9664 33.9258 66.5955 34.2134 66.2535 34.7813ZM60.0669 34.1038C60.6666 34.3655 61.1716 34.4151 61.6141 34.2227C62.0602 34.0344 62.3259 33.7676 62.5547 33.3331C62.728 32.9358 62.7373 32.5117 62.6079 32.0917C62.4392 31.679 62.1295 31.3066 61.6592 31.1028L60.4737 30.8948C59.6071 30.8555 58.9681 31.2062 58.6099 31.8145C58.3695 32.3203 58.4839 32.7662 58.9346 33.2793C59.2558 33.6465 59.6706 33.9134 60.0669 34.1038ZM49.6733 31.5072C50.4371 31.8372 51.3811 31.89 52.5793 31.6334C53.7325 31.3707 54.7794 30.9662 55.698 30.3848C56.6582 29.7766 57.236 29.1735 57.3816 28.5011C57.5318 27.8266 57.1794 27.2556 56.1833 26.8438C56.0227 26.7673 55.6876 26.7125 55.1307 26.6514C54.3576 26.5904 53.6632 26.5883 52.941 26.6907C50.7467 26.9266 49.255 27.7511 48.4554 29.1693C47.9343 30.0952 48.326 30.9103 49.6733 31.5072ZM79.3198 32.0317C79.7103 32.251 80.1332 32.2934 80.5099 32.2024C80.845 32.069 81.0888 31.9138 81.2899 31.5931C81.4309 31.3531 81.5014 31.0521 81.3465 30.751C81.246 30.4138 80.9479 30.1717 80.4753 29.9659L79.782 29.73C79.2377 29.6297 78.8668 29.9173 78.5317 30.481C78.3168 30.84 78.363 31.2321 78.6091 31.5093C78.7651 31.7307 79.0286 31.9427 79.3198 32.0317ZM59.904 39.7396C60.3477 39.9423 60.8226 39.9475 61.2606 39.7209C61.6916 39.5596 62.0267 39.2254 62.3005 38.8065C62.5674 38.3844 62.6622 37.9747 62.5767 37.563C62.4969 37.1213 62.2589 36.8027 61.8175 36.6061C61.7863 36.5999 61.4928 36.511 60.8769 36.363C60.2599 36.3723 59.7446 36.7075 59.3852 37.3892C59.0802 37.9561 58.9923 38.5251 59.2015 38.9565C59.3228 39.3661 59.5839 39.6082 59.904 39.7396ZM50.5723 34.7534C50.6451 34.8134 50.3215 34.7493 49.6583 34.5506C48.8656 34.5662 48.2439 35.0037 47.784 35.8975C47.494 36.3982 47.464 36.7789 47.6084 37.082C47.7794 37.3054 47.9516 37.4999 48.3537 37.6448C48.7512 37.8372 49.1961 37.7927 49.6652 37.6448C50.1066 37.4544 50.5064 37.202 50.8103 36.8286C51.165 36.4189 51.2944 36.0155 51.2829 35.6617C51.2956 35.2324 51.0564 34.9613 50.5723 34.7534ZM70.7518 42.0009C71.1666 42.1488 71.5537 42.1333 71.9801 42.0206C72.3614 41.8933 72.715 41.6471 72.9264 41.2882C73.1691 40.9809 73.2477 40.6044 73.1529 40.2775C73.0316 39.8596 72.745 39.5772 72.2274 39.3278C72.2274 39.3278 71.935 39.2761 71.385 39.1365C70.8743 39.1282 70.4063 39.4727 70.0446 40.112C69.7627 40.5692 69.7592 40.9995 69.988 41.3544C70.1428 41.6161 70.4109 41.824 70.7518 42.0009ZM54.5379 40.2713C54.5379 40.2713 54.4235 40.2113 54.1369 40.1637C53.8284 40.1089 53.4841 40.1223 53.2033 40.1906C52.116 40.3902 51.3129 41.0658 50.6601 42.1995C50.2025 43.0954 50.4163 43.684 51.291 44.074C51.8491 44.3254 52.4661 44.3212 53.2045 44.1061C53.8215 43.9012 54.3796 43.5361 54.8441 43.0333C55.3502 42.5306 55.6391 42.033 55.5628 41.5551C55.6102 40.9768 55.2231 40.5506 54.5379 40.2713ZM40.6304 44.6709C41.1504 44.8829 41.6149 44.9626 42.0054 44.7619C42.3451 44.6347 42.6271 44.3585 42.7553 43.9561C42.9194 43.5909 42.9148 43.2443 42.8212 42.874C42.6976 42.4592 42.4156 42.1788 42.0586 41.9916C42.0586 41.9916 41.7212 41.9337 41.2139 41.883C40.5899 41.9306 40.1243 42.2399 39.825 42.8099C39.3778 43.6271 39.6413 44.2219 40.6304 44.6709ZM48.6264 44.6947C48.3907 44.1826 47.9597 43.7512 47.2745 43.4761C47.2745 43.4761 46.9556 43.3747 46.3836 43.1957C45.6753 43.1916 45.1634 43.5692 44.7405 44.2757C44.4377 44.8457 44.4897 45.3992 44.8872 45.9826C45.2223 46.4305 45.5909 46.7347 46.0254 46.926C46.6158 47.1981 47.1451 47.2022 47.6281 47.0212C48.0972 46.8319 48.4739 46.5433 48.6507 46.1005C48.8494 45.6319 48.8587 45.1674 48.6264 44.6947ZM49.1244 87.1369L46.8608 90.4473C40.3843 85.9659 34.5594 80.9374 29.488 75.2581C28.7242 74.3861 28.0008 73.5109 27.2371 72.5902C27.2475 72.5571 27.2475 72.5571 27.2475 72.5571C27.6854 72.1578 28.1233 71.8071 28.5555 71.4223C28.1256 70.5958 27.497 70.0951 26.6466 69.7806L26.523 69.764C26.0689 69.643 25.6321 69.6389 25.2508 69.8137C21.693 64.5607 19.3416 58.8638 18.1341 52.6973C17.8256 51.1529 17.5552 49.627 17.3819 48.0329C17.9642 47.5871 18.5142 47.0988 19.055 46.6084C18.6633 45.8295 18 45.2802 17.1415 45.0154C17.1415 45.0154 17.1473 44.9719 17.1022 44.9678C17.0121 42.453 17.041 39.9827 17.2444 37.4875L27.452 31.4855C32.988 28.6024 38.8163 26.1611 44.7983 24.2194C50.4035 22.3646 56.0181 21.1367 61.5772 20.4477C61.6072 20.5325 61.5945 20.6049 61.6569 20.7001C61.7632 21.1905 61.9515 21.7263 62.2127 22.3253C62.5293 23.2439 63.0851 24.2794 63.7472 25.4121C65.2586 28.0376 67.0103 29.8283 68.9065 30.9072C69.1468 30.99 69.3444 31.1038 69.5767 31.2228C69.8979 31.3583 70.2503 31.3459 70.4571 31.1845C70.5658 31.0924 70.5773 31.0148 70.6328 30.9838C70.6998 30.8752 70.7587 30.8493 70.7587 30.8493C70.7737 30.7738 70.7553 30.6207 70.6686 30.4438C70.7183 30.3766 70.7356 30.3372 70.7356 30.3372C70.8696 30.1252 71.1759 29.3617 71.6554 27.9973C72.1349 26.5976 72.6838 25.3646 73.3193 24.2297C73.5585 23.7197 73.8346 23.2708 74.1547 22.8508C74.863 21.808 75.6973 20.8201 76.6818 19.9408C80.4291 20.1818 84.1266 20.6453 87.7965 21.3808C95.254 22.828 100.488 26.0297 103.523 31.0293C103.433 31.019 103.344 31.0407 103.294 31.0666C103.679 31.4907 104.112 32.1176 104.529 32.9276L104.526 32.9689C104.573 32.9814 104.573 32.9814 104.573 32.9814C104.614 32.9865 104.647 33.0258 104.647 33.0258L104.638 33.0693C105.35 34.4048 105.917 35.762 106.291 37.2299C106.588 38.2251 106.7 39.1085 106.676 39.8078C106.691 40.1254 106.628 40.384 106.58 40.6137C106.778 42.2875 106.676 43.9147 106.342 45.6133L106.072 46.2329C105.712 46.8691 104.998 47.6843 103.979 48.755C102.397 49.9963 100.159 51.3929 97.3952 52.8556C96.1426 53.5332 93.4954 54.8563 89.5089 56.8456C87.065 58.0104 84.9886 59.0883 83.1202 60.0411C83.0555 60.1083 83.0058 60.1414 82.8648 60.1952C81.7602 59.6417 80.6393 59.0128 79.4966 58.2649C78.2382 57.4114 77.4837 56.9221 77.2306 56.8456C77.248 56.8 77.1994 56.8011 77.0735 56.7721C77.0804 56.5394 76.9741 56.4432 76.9291 56.4328C76.899 56.3935 76.8574 56.3801 76.7268 56.3635C76.6887 56.3563 76.5709 56.2911 76.4854 56.2766C76.1422 56.2528 75.8325 56.4721 75.6557 56.8704C75.5274 57.0473 75.4269 57.2997 75.3426 57.5118C74.4008 59.5435 74.1212 61.9952 74.3812 64.9351C69.3352 67.9848 64.9755 71.0768 61.212 74.2371C56.4826 78.2457 52.4615 82.5356 49.1244 87.1369Z" fill="#F7BF3C"/>
<path d="M91.0617 73.238C90.7393 73.1056 90.4851 73.0528 90.2239 73.0508C89.4128 72.9846 88.7044 73.4035 88.2434 74.2953C87.8586 75.0473 87.8136 75.6307 88.2792 76.1004C88.4445 76.328 88.902 76.6083 89.6196 76.93C90.4134 77.2652 91.1887 77.3676 91.8 77.1607C92.3858 77.0718 92.7706 76.7542 93.0144 76.2452C93.2016 75.7735 93.182 75.2614 92.9532 74.7494C92.6331 74.1825 92.1328 73.6994 91.4222 73.3746C91.3771 73.3694 91.2512 73.3456 91.0617 73.238Z" fill="#D8553E"/>
<path d="M97.5864 74.7179C98.4634 75.1017 99.2376 75.1596 100.059 74.9962C100.749 74.8503 101.305 74.48 101.653 73.91C102.035 73.3979 102.114 72.8259 101.882 72.2776C101.64 71.6073 101.096 71.118 100.221 70.7197L99.8222 70.5738C99.3681 70.4125 98.9614 70.3028 98.5766 70.2749C97.294 70.1269 96.3766 70.5449 95.8531 71.5059C95.436 72.2155 95.5354 72.9355 96.2471 73.6586C96.6284 74.1107 97.0664 74.5017 97.5864 74.7179Z" fill="#D8553E"/>
<path d="M83.8854 74.229C84.2309 73.6994 84.2956 73.2018 84.15 72.668C83.9328 72.0753 83.5503 71.618 82.8327 71.3408C82.8327 71.3408 82.7114 71.2415 82.4803 71.1587C82.2041 71.0263 81.9488 70.9839 81.6899 70.9787C80.9227 70.9167 80.1936 71.4029 79.6794 72.3753C79.2322 73.1563 79.253 73.8628 79.7025 74.4194C79.9555 74.8135 80.3369 75.0763 80.8187 75.2738C81.408 75.5801 82.062 75.5811 82.6386 75.3318C83.2013 75.1559 83.5988 74.7608 83.8854 74.229Z" fill="#D8553E"/>
<path d="M108.979 66.1451C110.029 65.5162 110.58 64.7993 110.66 64.0658C110.719 63.2062 110.093 62.5172 108.819 61.941C108.666 61.8665 108.315 61.851 107.683 61.7703C106.834 61.6586 106.04 61.7155 105.273 61.8086C102.807 62.0745 101.146 63.0727 100.254 64.7144C100.029 65.1417 99.9879 65.5234 100.239 65.9558C100.406 66.3779 100.7 66.622 100.973 66.7482C102.258 67.2965 103.651 67.5034 105.206 67.3565C106.646 67.1796 107.871 66.8134 108.979 66.1451Z" fill="#D8553E"/>
<path d="M67.1044 17.6436C67.3575 17.0622 67.3956 16.5253 67.205 15.9833C66.9912 15.3946 66.5255 14.9198 65.845 14.6488C65.8149 14.5929 65.4717 14.535 64.8593 14.3488C64.1591 14.3436 63.6449 14.7119 63.2174 15.4629C62.7309 16.275 62.6962 17.0105 63.0695 17.7046C63.3052 18.1784 63.7073 18.5581 64.1406 18.7525C64.8246 19.0412 65.422 19.067 66.0044 18.8177C66.5463 18.557 66.8861 18.1929 67.1044 17.6436Z" fill="#D8553E"/>
<path d="M83.5601 8.68738C83.1811 9.4053 83.1372 9.98356 83.4722 10.4367C83.6825 10.6684 84.0627 10.9384 84.615 11.1908C85.6168 11.6046 86.7307 11.7256 87.8435 11.407C88.8996 11.1753 89.7628 10.6591 90.5323 9.93494C91.2557 9.25219 91.667 8.54462 91.7051 7.7998C91.7433 7.02394 91.3469 6.48912 90.5173 6.06912C90.3509 5.99878 90.0586 5.98327 89.5767 5.97189C88.8938 5.92948 88.271 5.93568 87.639 6.05361C85.6966 6.33498 84.3458 7.27325 83.5601 8.68738Z" fill="#D8553E"/>
<path d="M76.5797 9.04724C77.1263 9.30792 77.7029 9.24689 78.4701 8.96241C79.0999 8.68 79.7181 8.24242 80.2011 7.66312C80.7303 7.05278 80.9059 6.45487 80.9013 5.90763C80.7765 5.26316 80.3235 4.75316 79.4962 4.3704L79.2258 4.20386C79.0224 4.12938 78.7752 4.0849 78.5556 4.08386C77.7907 4.14179 77.0789 4.79972 76.3821 6.00798C75.8599 6.969 75.6091 7.70244 75.7154 8.19484C75.8044 8.55794 76.0979 8.84965 76.5797 9.04724Z" fill="#D8553E"/>
<path d="M73.1996 10.2883C73.5463 9.67899 73.6283 9.11622 73.4585 8.53174C73.3429 7.99278 72.9743 7.52934 72.4162 7.23659C72.4104 7.22211 72.2787 7.13728 72.0072 6.9759C71.7634 6.90349 71.5253 6.81867 71.2549 6.80522C70.3652 6.73074 69.6765 7.23245 69.0537 8.29589C68.595 9.19071 68.4598 9.94381 68.7267 10.5417C68.8977 10.9628 69.2317 11.2203 69.7436 11.4645C70.4553 11.7934 71.1486 11.7883 71.8269 11.5214C72.4 11.3176 72.8796 10.8914 73.1996 10.2883Z" fill="#D8553E"/>
<path d="M111.759 36.8086C114.652 34.8183 116.043 33.6649 115.999 33.458C116.01 33.1901 114.566 33.0111 111.797 32.9046C109.486 32.8466 108.014 32.8156 107.35 32.857C107.048 32.8352 106.782 32.8694 106.468 32.889C106.711 32.7763 106.907 32.6977 107.15 32.5839C107.603 32.3118 108.206 31.987 108.903 31.6042C110.622 30.5429 111.477 30.0308 111.369 29.9273C111.298 29.8446 110.27 29.9273 108.153 30.2604C106.474 30.5087 105.348 30.6525 104.892 30.7322C104.292 30.8635 103.843 30.9349 103.523 31.0322C103.433 31.0218 103.344 31.0435 103.294 31.0694C103.679 31.4935 104.112 32.1204 104.529 32.9304L104.526 32.9718C104.573 32.9842 104.573 32.9842 104.573 32.9842C104.652 33.0008 104.699 33.007 104.786 33.0215C104.775 33.0535 104.682 33.039 104.682 33.039C104.682 33.039 104.638 33.0721 104.647 33.0287L104.638 33.0721C105.35 34.4076 105.917 35.7649 106.291 37.2328C106.588 38.2279 106.7 39.1114 106.676 39.8107C106.714 39.8189 106.762 39.8241 106.762 39.8241C106.836 39.8376 106.986 39.7838 107.135 39.6969C107.857 39.3948 109.432 38.4235 111.759 36.8086Z" fill="#FF2C50"/>
<path d="M11.1018 96.4207C11.6275 96.039 11.906 95.7441 12.077 95.5807L12.322 95.2693L12.4941 95.4597C12.6698 95.6448 12.7842 95.9066 12.8489 96.2138C12.857 96.579 12.902 96.7434 12.8986 96.7796C13.0869 96.9338 13.2521 96.9628 13.3515 96.9038C13.4185 96.7952 13.4659 96.6048 13.4474 96.2872C13.385 95.5735 13.1562 95.0666 12.7599 94.6497C12.731 94.5928 12.6513 94.5814 12.6189 94.4997C13.3342 93.6524 13.816 92.6811 14.0552 91.5928C14.5706 89.2911 15.3817 87.0535 16.4251 84.8946C17.9515 81.7622 20.0303 78.8874 22.6093 76.3375C23.3962 75.5782 24.2051 74.8613 25.111 74.162C25.7164 73.7678 26.2988 73.2785 26.8881 72.8389C26.991 72.7417 27.1111 72.6444 27.2498 72.5554C27.6877 72.1561 28.1256 71.8055 28.5578 71.4206C28.128 70.5941 27.4994 70.0934 26.6489 69.7789C26.6004 69.7737 26.5646 69.7707 26.5253 69.7624C26.0712 69.6413 25.6344 69.6372 25.2531 69.812C25.0509 69.8886 24.8487 70.0096 24.6857 70.1782C22.7376 72.0217 20.9847 74.012 19.471 76.1306C18.7615 77.1744 18.0867 78.1881 17.4281 79.2433C16.5788 80.6605 15.8266 82.086 15.1795 83.616C14.5717 85.3467 13.9246 87.1084 13.3503 88.8815C12.8512 90.5511 12.4687 92.2476 12.2596 93.9659C12.2885 94.0487 12.2607 94.1676 12.2422 94.2359L12.1579 94.2214C11.8563 94.0145 11.4796 93.9069 11.1353 93.9193C10.494 93.849 10.0329 93.999 9.65624 94.2814C9.51873 94.3383 9.47714 94.4904 9.49678 94.6062C9.52104 94.6869 9.59499 94.7407 9.59499 94.7407C9.59499 94.7407 9.8596 94.748 10.3414 94.7521C10.8568 94.7738 11.2393 94.8059 11.438 94.9207C11.3317 95.0107 10.8579 95.5538 10.0711 96.5097C9.90582 96.6793 9.8492 96.7807 9.94973 96.8769C10.0352 96.9286 10.0953 96.9866 10.1924 97C10.3287 96.9462 10.6765 96.7631 11.1018 96.4207Z" fill="#FF2C50"/>
<path d="M1.60114 71.6135C2.0772 71.2286 2.4042 70.9721 2.57175 70.7704L2.81209 70.4942L3.02586 70.6897C3.17376 70.8335 3.28469 71.1262 3.34131 71.4521C3.35864 71.7655 3.40602 71.9331 3.43722 72.0118C3.61978 72.1638 3.74111 72.1793 3.84973 72.0914C3.86475 72.018 3.92021 71.7904 3.94332 71.5152C3.87168 70.7993 3.65098 70.2552 3.26043 69.8694C3.22461 69.827 3.18994 69.7762 3.11368 69.7245C3.82546 68.8711 4.31308 67.8697 4.55111 66.8146C5.06877 64.4849 5.86375 62.2753 6.91872 60.1184C8.48672 56.9985 10.5239 54.1185 13.1387 51.5706C13.8829 50.803 14.7437 50.0654 15.5965 49.3879C16.2239 48.9555 16.8017 48.5148 17.384 48.0327C17.9664 47.5869 18.5164 47.0986 19.0572 46.6082C18.6655 45.8293 18.0022 45.28 17.1437 45.0152C17.0998 45.0007 17.0559 44.9955 17.0304 44.9531C16.3175 44.7803 15.7259 44.9158 15.2302 45.37C13.2427 47.2072 11.491 49.2037 9.99926 51.3627C9.24935 52.3992 8.58956 53.4151 7.91937 54.4319C7.02964 55.873 6.31324 57.3161 5.72625 58.8067C5.06415 60.5715 4.41823 62.2898 3.89132 64.1136C3.30433 65.7335 2.97733 67.4301 2.75663 69.1939C2.74392 69.2735 2.72659 69.347 2.74161 69.4607C2.6977 69.4576 2.70579 69.4163 2.66188 69.4142C2.30714 69.227 2.02867 69.139 1.62771 69.1432C1.02917 69.079 0.519591 69.2259 0.193742 69.5197C0.0516164 69.5735 -0.0234893 69.7152 0.00655356 69.799C0.0296634 69.8787 0.0978403 69.9314 0.0978403 69.9314C0.137127 69.9387 0.356671 69.978 0.836201 69.9438C1.36195 69.9531 1.73517 70.0256 1.94432 70.1052C1.85881 70.2469 1.43474 70.7911 0.570433 71.7324C0.404042 71.9073 0.383245 71.9776 0.446797 72.0635C0.526526 72.1597 0.591236 72.2114 0.68483 72.1876C0.861621 72.1855 1.21636 71.9662 1.60114 71.6135Z" fill="#FF2C50"/>
</svg>
