<svg width="25" height="24" viewBox="0 0 25 24" fill="none" xmlns="http://www.w3.org/2000/svg">
<mask id="mask0_152_7151" style="mask-type:alpha" maskUnits="userSpaceOnUse" x="0" y="0" width="25" height="24">
<rect x="0.390625" width="24" height="24" fill="#D9D9D9"/>
</mask>
<g mask="url(#mask0_152_7151)">
<path d="M5.69837 19.5C5.19321 19.5 4.76562 19.325 4.41563 18.975C4.06563 18.625 3.89062 18.1974 3.89062 17.6923V4.30775C3.89062 3.80258 4.06563 3.375 4.41563 3.025C4.76562 2.675 5.19321 2.5 5.69837 2.5H12.0059V4H5.69837C5.62137 4 5.55088 4.03208 5.48688 4.09625C5.42271 4.16025 5.39062 4.23075 5.39062 4.30775V17.6923C5.39062 17.7692 5.42271 17.8398 5.48688 17.9038C5.55088 17.9679 5.62137 18 5.69837 18H19.0829C19.1599 18 19.2304 17.9679 19.2944 17.9038C19.3585 17.8398 19.3906 17.7692 19.3906 17.6923V11.3848H20.8906V17.6923C20.8906 18.1974 20.7156 18.625 20.3656 18.975C20.0156 19.325 19.588 19.5 19.0829 19.5H5.69837ZM10.1099 14.3345L9.05613 13.2808L18.3369 4H14.3906V2.5H20.8906V9H19.3906V5.05375L10.1099 14.3345Z" fill="#E86630"/>
</g>
</svg>
