<svg width="77" height="27" viewBox="0 0 77 27" fill="none" xmlns="http://www.w3.org/2000/svg">
<path d="M70.645 6.61517H66.937V4.13813H71.4536L75.1646 0.42711L75.1948 0.457283V0.415039H62.5924V16.9547C62.5924 16.9547 68.7865 16.9547 70.8502 16.9547C74.1599 16.9547 76.643 15.2953 76.643 11.7834C76.643 8.26853 74.163 6.61517 70.645 6.61517ZM70.2317 13.4428H66.937V10.1391H70.2317C71.2545 10.1391 72.2924 10.5434 72.2924 11.7865C72.2924 13.0295 71.2575 13.4428 70.2317 13.4428Z" fill="white"/>
<path d="M43.7721 0.417969H34.0842L28.4724 6.02976V16.9577H32.814V4.13804H39.4305V16.9577H39.4395L43.7721 12.6251V0.417969Z" fill="white"/>
<path d="M54.3979 13.4351C51.5015 13.4351 49.8693 11.3111 49.8693 8.68319C49.8693 6.57424 51.055 3.92825 54.3134 3.92825C56.347 3.92825 57.6594 5.17129 58.124 5.75057L60.764 3.11062C59.171 1.20985 56.7784 0 54.1053 0C49.3111 0 45.5247 3.55112 45.5247 8.68319C45.5247 13.4804 49.3081 17.3664 54.1053 17.3664C56.9775 17.3664 59.5209 15.9725 61.1019 13.8243L58.4438 11.1662C57.6081 12.4847 56.2353 13.4351 54.3979 13.4351Z" fill="white"/>
<path d="M28.4725 22.9087C28.4725 21.6023 29.4591 20.5493 30.8499 20.5493C31.6917 20.5493 32.4309 20.9808 32.8111 21.6475L32.5033 21.8225C32.2016 21.2614 31.568 20.8812 30.8499 20.8812C29.6491 20.8812 28.8194 21.7833 28.8194 22.9057C28.8194 24.028 29.6491 24.9301 30.8499 24.9301C31.574 24.9301 32.2167 24.5439 32.5154 23.9707L32.8231 24.1457C32.452 24.8185 31.7068 25.262 30.8499 25.262C29.4591 25.268 28.4725 24.2151 28.4725 22.9087Z" fill="white"/>
<path d="M36.7089 20.9499H35.2727V25.1949H34.9198V20.9499H33.4836V20.624H36.7119V20.9499H36.7089Z" fill="white"/>
<path d="M40.7335 22.0396C40.7335 22.8422 40.1331 23.4516 39.3094 23.4516H38.0996V25.1955H37.7526V20.6216H39.3064C40.1331 20.6216 40.7335 21.231 40.7335 22.0396ZM40.3865 22.0396C40.3865 21.406 39.937 20.9474 39.3094 20.9474H38.0996V23.1228H39.3094C39.937 23.1258 40.3865 22.6672 40.3865 22.0396Z" fill="white"/>
<path d="M44.0919 24.0339H41.7989L41.3554 25.1955H40.9903L42.7674 20.6216H43.1324L44.9035 25.1955H44.5384L44.0919 24.0339ZM43.9682 23.705L42.9484 21.047L41.9286 23.705H43.9682Z" fill="white"/>
<path d="M48.5205 25.1949L47.2021 23.1554L45.8836 25.1949H45.4793L46.9999 22.8446L45.5638 20.624H45.962L47.2021 22.5369L48.4361 20.624H48.8343L47.3982 22.8446L48.9218 25.1949H48.5205Z" fill="white"/>
<path d="M49.5073 22.9087C49.5073 21.6023 50.5452 20.5493 51.8667 20.5493C53.1851 20.5493 54.226 21.6023 54.226 22.9087C54.226 24.2151 53.1881 25.2681 51.8667 25.2681C50.5452 25.2681 49.5073 24.2151 49.5073 22.9087ZM53.876 22.9087C53.876 21.7863 52.9951 20.8842 51.8636 20.8842C50.7322 20.8842 49.8512 21.7863 49.8512 22.9087C49.8512 24.031 50.7322 24.9331 51.8636 24.9331C52.9951 24.9331 53.876 24.0341 53.876 22.9087Z" fill="white"/>
<path d="M58.6459 23.9489C58.6459 24.6428 58.0908 25.1979 57.3969 25.1979H55.4237V20.624H57.246C57.9128 20.624 58.4468 21.1671 58.4468 21.8248C58.4468 22.2683 58.2115 22.6334 57.8585 22.8235C58.3171 23.0015 58.6459 23.4239 58.6459 23.9489ZM55.7706 20.9499V22.6998H57.246C57.7167 22.6998 58.1029 22.3076 58.1029 21.8248C58.1029 21.3421 57.7167 20.9499 57.246 20.9499H55.7706ZM58.299 23.9489C58.299 23.439 57.8947 23.0286 57.3969 23.0286H55.7706V24.8721H57.3969C57.8947 24.8691 58.299 24.4557 58.299 23.9489Z" fill="white"/>
<path d="M62.4536 24.0339H60.1606L59.7171 25.1955H59.352L61.1291 20.6216H61.4941L63.2652 25.1955H62.9001L62.4536 24.0339ZM62.3299 23.705L61.3101 21.047L60.2903 23.705H62.3299Z" fill="white"/>
<path d="M67.6069 20.6216V25.1955H67.2599V23.0081H64.6019V25.1955H64.2549V20.6216H64.6019V22.6792H67.2599V20.6216H67.6069Z" fill="white"/>
<path d="M72.0752 21.2642L69.3719 25.1955H69.0702V20.6216H69.4171V24.5529L72.1144 20.6216H72.4221V25.1955H72.0752V21.2642Z" fill="white"/>
<path d="M76.5194 24.8697V25.1955H73.8854V20.6216H76.4862V20.9474H74.2324V22.7245H76.3232V23.0503H74.2324V24.8666H76.5194V24.8697Z" fill="white"/>
<path d="M22.7881 0.40918H16.8897H5.87729L0 6.28648V6.30759H16.8897V14.68L12.4063 18.4755L12.4244 26.9898L22.779 17.673L22.6795 17.5674H22.7881V6.30759V0.40918Z" fill="#E9561A"/>
<path d="M13.6493 14.35H13.6916L14.476 13.6832V8.45459H5.36137H0V14.35V17.5692H0.220246L0.111631 17.6839L10.5055 27.0006L10.5266 18.4864L5.60576 14.35H11.127H13.6493Z" fill="white"/>
</svg>
