<svg width="96" height="96" viewBox="0 0 96 96" fill="none" xmlns="http://www.w3.org/2000/svg">
<g filter="url(#filter0_dd_2542_19539)">
<rect x="30" y="20" width="36" height="36" rx="18" fill="#E86630"/>
<mask id="mask0_2542_19539" style="mask-type:alpha" maskUnits="userSpaceOnUse" x="36" y="26" width="24" height="24">
<rect x="36" y="26" width="24" height="24" fill="#D9D9D9"/>
</mask>
<g mask="url(#mask0_2542_19539)">
<path d="M48 47.5099C47.7705 47.5099 47.5471 47.467 47.3298 47.3811C47.1125 47.2952 46.9212 47.1663 46.7558 46.9945L40.2481 40.4619C39.6648 39.8785 39.2276 39.2167 38.9365 38.4763C38.6455 37.7359 38.5 36.9702 38.5 36.1792C38.5 34.6036 39.0038 33.2568 40.0116 32.1388C41.0192 31.0209 42.2667 30.4619 43.7538 30.4619C44.4961 30.4619 45.2022 30.6122 45.8721 30.9129C46.5419 31.2135 47.1391 31.6343 47.6634 32.1754L48 32.5312L48.3173 32.1946C48.8378 31.6408 49.4346 31.2135 50.1077 30.9129C50.7808 30.6122 51.4852 30.4619 52.2211 30.4619C53.7083 30.4619 54.9599 31.0209 55.9759 32.1388C56.9919 33.2568 57.5 34.5952 57.5 36.1542C57.5 36.9516 57.3519 37.7205 57.0557 38.4609C56.7596 39.2013 56.3249 39.8632 55.7519 40.4465L49.2192 46.9945C49.0474 47.1663 48.8586 47.2952 48.6529 47.3811C48.4471 47.467 48.2295 47.5099 48 47.5099ZM49 35.2504C49.1282 35.2504 49.248 35.2808 49.3596 35.3417C49.4711 35.4026 49.5589 35.4837 49.623 35.585L51.3904 38.2504H55.5019C55.6762 37.9157 55.807 37.5721 55.8942 37.2196C55.9814 36.867 56.0218 36.5119 56.0154 36.1542C55.9884 35.0042 55.6147 34.0231 54.8942 33.2109C54.1737 32.3987 53.2827 31.9926 52.2211 31.9926C51.6916 31.9926 51.1798 32.0974 50.6856 32.3071C50.1913 32.5167 49.7628 32.8228 49.4 33.2253L48.6096 34.0753C48.5327 34.1689 48.4404 34.2385 48.3327 34.284C48.225 34.3295 48.1141 34.3523 48 34.3523C47.8859 34.3523 47.7734 34.3279 47.6625 34.2792C47.5516 34.2305 47.4525 34.1625 47.3654 34.0753L46.575 33.2253C46.2122 32.8228 45.7862 32.5116 45.2971 32.2917C44.808 32.0718 44.2936 31.9619 43.7538 31.9619C42.6923 31.9619 41.8013 32.3731 41.0808 33.1955C40.3602 34.018 40 35.0042 40 36.1542C40 36.5183 40.041 36.875 40.1231 37.2244C40.2051 37.5738 40.3301 37.9157 40.4981 38.2504H45C45.1282 38.2504 45.2464 38.2808 45.3548 38.3417C45.4631 38.4026 45.5493 38.4837 45.6134 38.585L46.7769 40.3177L48.2904 35.7773C48.3442 35.6221 48.4346 35.4955 48.5615 35.3975C48.6884 35.2994 48.8346 35.2504 49 35.2504ZM49.2231 37.683L47.7096 42.2234C47.6557 42.3785 47.5612 42.5051 47.4259 42.6032C47.2907 42.7013 47.1404 42.7503 46.975 42.7503C46.8468 42.7503 46.7285 42.7199 46.6202 42.659C46.5118 42.5981 46.4256 42.517 46.3615 42.4157L44.5846 39.7503H41.6596L47.825 45.9253C47.8583 45.9587 47.8875 45.9795 47.9125 45.9878C47.9375 45.9962 47.9666 46.0003 48 46.0003C48.0333 46.0003 48.0625 45.9962 48.0875 45.9878C48.1125 45.9795 48.1416 45.9587 48.175 45.9253L54.325 39.7503H51C50.8718 39.7503 50.7519 39.7183 50.6404 39.6542C50.5288 39.5901 50.4359 39.5074 50.3615 39.4061L49.2231 37.683Z" fill="white"/>
</g>
</g>
<defs>
<filter id="filter0_dd_2542_19539" x="0" y="0" width="96" height="96" filterUnits="userSpaceOnUse" color-interpolation-filters="sRGB">
<feFlood flood-opacity="0" result="BackgroundImageFix"/>
<feColorMatrix in="SourceAlpha" type="matrix" values="0 0 0 0 0 0 0 0 0 0 0 0 0 0 0 0 0 0 127 0" result="hardAlpha"/>
<feOffset dy="10"/>
<feGaussianBlur stdDeviation="15"/>
<feComposite in2="hardAlpha" operator="out"/>
<feColorMatrix type="matrix" values="0 0 0 0 0 0 0 0 0 0 0 0 0 0 0 0 0 0 0.05 0"/>
<feBlend mode="normal" in2="BackgroundImageFix" result="effect1_dropShadow_2542_19539"/>
<feColorMatrix in="SourceAlpha" type="matrix" values="0 0 0 0 0 0 0 0 0 0 0 0 0 0 0 0 0 0 127 0" result="hardAlpha"/>
<feOffset/>
<feGaussianBlur stdDeviation="5"/>
<feComposite in2="hardAlpha" operator="out"/>
<feColorMatrix type="matrix" values="0 0 0 0 0 0 0 0 0 0 0 0 0 0 0 0 0 0 0.02 0"/>
<feBlend mode="normal" in2="effect1_dropShadow_2542_19539" result="effect2_dropShadow_2542_19539"/>
<feBlend mode="normal" in="SourceGraphic" in2="effect2_dropShadow_2542_19539" result="shape"/>
</filter>
</defs>
</svg>
