<svg width="20" height="20" viewBox="0 0 20 20" fill="none" xmlns="http://www.w3.org/2000/svg">
<mask id="mask0_2210_12128" style="mask-type:alpha" maskUnits="userSpaceOnUse" x="0" y="0" width="20" height="20">
<rect width="20" height="20" fill="#D9D9D9"/>
</mask>
<g mask="url(#mask0_2210_12128)">
<path d="M9.37468 13.958H10.6246V9.16632H9.37468V13.958ZM9.99965 7.74005C10.1904 7.74005 10.3502 7.67555 10.4792 7.54655C10.6082 7.41755 10.6727 7.2577 10.6727 7.06699C10.6727 6.87629 10.6082 6.71644 10.4792 6.58743C10.3502 6.45843 10.1904 6.39393 9.99965 6.39393C9.80895 6.39393 9.64909 6.45843 9.52009 6.58743C9.39109 6.71644 9.32659 6.87629 9.32659 7.06699C9.32659 7.2577 9.39109 7.41755 9.52009 7.54655C9.64909 7.67555 9.80895 7.74005 9.99965 7.74005ZM10.001 17.9163C8.90611 17.9163 7.87691 17.7085 6.91347 17.293C5.95001 16.8774 5.11194 16.3135 4.39926 15.6011C3.68656 14.8887 3.12235 14.051 2.70661 13.088C2.29088 12.125 2.08301 11.096 2.08301 10.0011C2.08301 8.90611 2.29079 7.87691 2.70634 6.91347C3.1219 5.95001 3.68586 5.11194 4.39822 4.39926C5.11059 3.68656 5.94829 3.12235 6.91132 2.70661C7.87433 2.29088 8.90331 2.08301 9.99826 2.08301C11.0932 2.08301 12.1224 2.29079 13.0858 2.70634C14.0493 3.1219 14.8874 3.68586 15.6001 4.39822C16.3127 5.11059 16.877 5.94829 17.2927 6.91132C17.7084 7.87434 17.9163 8.90331 17.9163 9.99826C17.9163 11.0932 17.7085 12.1224 17.293 13.0858C16.8774 14.0493 16.3135 14.8874 15.6011 15.6001C14.8887 16.3127 14.051 16.877 13.088 17.2927C12.125 17.7084 11.096 17.9163 10.001 17.9163ZM9.99965 16.6663C11.8608 16.6663 13.4372 16.0205 14.7288 14.7288C16.0205 13.4372 16.6663 11.8608 16.6663 9.99965C16.6663 8.13854 16.0205 6.56215 14.7288 5.27049C13.4372 3.97882 11.8608 3.33299 9.99965 3.33299C8.13854 3.33299 6.56215 3.97882 5.27049 5.27049C3.97882 6.56215 3.33299 8.13854 3.33299 9.99965C3.33299 11.8608 3.97882 13.4372 5.27049 14.7288C6.56215 16.0205 8.13854 16.6663 9.99965 16.6663Z" fill="white"/>
</g>
</svg>
