<svg width="20" height="20" viewBox="0 0 20 20" fill="none" xmlns="http://www.w3.org/2000/svg">
<mask id="mask0_2210_12135" style="mask-type:alpha" maskUnits="userSpaceOnUse" x="0" y="0" width="20" height="20">
<rect width="20" height="20" fill="#D9D9D9"/>
</mask>
<g mask="url(#mask0_2210_12135)">
<path d="M8.24998 12.5959L9.99998 10.8459L11.75 12.5959L12.6282 11.7178L10.8782 9.96776L12.6282 8.21776L11.75 7.33959L9.99998 9.08959L8.24998 7.33959L7.37179 8.21776L9.12179 9.96776L7.37179 11.7178L8.24998 12.5959ZM9.99998 17.9004C8.19763 17.409 6.70538 16.3481 5.52323 14.7178C4.34108 13.0874 3.75 11.2648 3.75 9.24982V4.45496L9.99998 2.11523L16.25 4.45496V9.24982C16.25 11.2648 15.6589 13.0874 14.4767 14.7178C13.2946 16.3481 11.8023 17.409 9.99998 17.9004ZM9.99998 16.5832C11.4444 16.1248 12.6389 15.2081 13.5833 13.8331C14.5278 12.4582 15 10.9304 15 9.24982V5.31232L9.99998 3.44534L4.99998 5.31232V9.24982C4.99998 10.9304 5.4722 12.4582 6.41665 13.8331C7.36109 15.2081 8.55553 16.1248 9.99998 16.5832Z" fill="#E86630"/>
</g>
</svg>
