<svg width="30" height="30" viewBox="0 0 30 30" fill="none" xmlns="http://www.w3.org/2000/svg">
<path fill-rule="evenodd" clip-rule="evenodd" d="M14.4 30C7.60833 30 4.21667 30 2.10833 27.8917C0 25.7833 0 22.3917 0 15.6V14.4C0 7.60833 0 4.21667 2.10833 2.10833C4.21667 0 7.60833 0 14.4 0H15.6C22.3917 0 25.7833 0 27.8917 2.10833C30 4.21667 30 7.60833 30 14.4V15.6C30 22.3917 30 25.7833 27.8917 27.8917C25.7833 30 22.3917 30 15.6 30H14.4Z" fill="#0077FF"/>
<path d="M17.3496 18.4916C16.9574 18.3933 16.6093 18.167 16.3602 17.8485C16.1112 17.53 15.9755 17.1376 15.9746 16.7333V6.96659C15.9757 6.74591 16.0269 6.52837 16.1243 6.33035C16.2217 6.13232 16.3628 5.95898 16.5369 5.82339C16.711 5.6878 16.9136 5.59348 17.1294 5.54756C17.3453 5.50163 17.5687 5.50529 17.7829 5.55825L23.6163 7.01659C24.0093 7.11162 24.3592 7.33564 24.6099 7.65287C24.8607 7.9701 24.9979 8.36222 24.9996 8.76659V18.5333C24.9985 18.7539 24.9473 18.9715 24.8499 19.1695C24.7525 19.3675 24.6115 19.5409 24.4374 19.6764C24.2633 19.812 24.0606 19.9064 23.8448 19.9523C23.629 19.9982 23.4055 19.9946 23.1913 19.9416L17.3496 18.4916Z" fill="white"/>
<path d="M6.40837 22.9825C6.0107 22.8923 5.65518 22.6703 5.39952 22.3526C5.14387 22.035 5.00309 21.6402 5.00003 21.2325V11.4658C4.9985 11.2418 5.04886 11.0206 5.14717 10.8193C5.24549 10.6181 5.38907 10.4424 5.56668 10.306C5.74428 10.1695 5.95107 10.0761 6.17084 10.033C6.39061 9.98987 6.61738 9.99824 6.83337 10.0575L12.6667 11.5075C13.0589 11.6057 13.4071 11.8321 13.6561 12.1505C13.9052 12.469 14.0408 12.8615 14.0417 13.2658V23.0325C14.0406 23.2531 13.9894 23.4707 13.892 23.6687C13.7946 23.8667 13.6536 24.0401 13.4795 24.1757C13.3053 24.3112 13.1027 24.4056 12.8869 24.4515C12.671 24.4974 12.4476 24.4938 12.2334 24.4408L6.40837 22.9825Z" fill="white"/>
<path d="M11.875 20.7416C11.4828 20.6433 11.1347 20.417 10.8856 20.0985C10.6365 19.78 10.5009 19.3876 10.5 18.9833V9.21659C10.5011 8.99591 10.5523 8.77837 10.6497 8.58035C10.7471 8.38232 10.8881 8.20898 11.0623 8.07339C11.2364 7.9378 11.439 7.84348 11.6548 7.79756C11.8707 7.75163 12.0941 7.75529 12.3083 7.80825L18.1417 9.26659C18.5332 9.36321 18.8811 9.58793 19.1303 9.90501C19.3794 10.2221 19.5154 10.6133 19.5167 11.0166V20.7833C19.5156 21.0039 19.4644 21.2215 19.367 21.4195C19.2696 21.6175 19.1285 21.7909 18.9544 21.9264C18.7803 22.062 18.5777 22.1564 18.3619 22.2023C18.146 22.2482 17.9226 22.2445 17.7083 22.1916L11.875 20.7416Z" fill="white"/>
<path d="M15.6835 21.6668C15.5591 21.6363 15.4479 21.5661 15.3668 21.4669C15.2856 21.3677 15.2388 21.2449 15.2335 21.1168L14.9835 13.6168C14.9357 13.175 14.7618 12.7562 14.4825 12.4104C14.2033 12.0647 13.8304 11.8065 13.4085 11.6668C13.3886 11.6583 13.3661 11.6579 13.3459 11.6657C13.3257 11.6735 13.3093 11.6888 13.3002 11.7085C13.2849 11.7241 13.2764 11.745 13.2764 11.7668C13.2764 11.7887 13.2849 11.8096 13.3002 11.8252C13.5215 11.9964 13.7005 12.2162 13.8233 12.4676C13.9462 12.7191 14.0095 12.9954 14.0085 13.2752V21.2668L15.6835 21.6668Z" fill="#0077FF"/>
<path d="M21.1493 19.442C21.0264 19.4099 20.9171 19.3391 20.8376 19.2401C20.758 19.141 20.7125 19.019 20.7077 18.892L20.4577 11.392C20.4181 10.9416 20.248 10.5126 19.9682 10.1573C19.6885 9.80211 19.3112 9.53616 18.8827 9.39205C18.8663 9.3785 18.8456 9.37109 18.8243 9.37109C18.8031 9.37109 18.7824 9.3785 18.766 9.39205C18.7507 9.40763 18.7422 9.42857 18.7422 9.45038C18.7422 9.4722 18.7507 9.49314 18.766 9.50872C18.985 9.68202 19.1624 9.90226 19.285 10.1532C19.4076 10.4042 19.4723 10.6794 19.4743 10.9587V18.9504L21.1493 19.442Z" fill="#0077FF"/>
</svg>
