<svg version="1.1" xmlns="http://www.w3.org/2000/svg" xmlns:xlink="http://www.w3.org/1999/xlink">

    <symbol viewBox="0 0 14 14" id="form-input-clear">
        <path d="M1.74621 13.6534L0.692383 12.5995L6.29238 6.99953L0.692383 1.39953L1.74621 0.345703L7.34621 5.9457L12.9462 0.345703L14 1.39953L8.40003 6.99953L14 12.5995L12.9462 13.6534L7.34621 8.05335L1.74621 13.6534Z" />
    </symbol>

    <symbol viewBox="0 0 24 24" id="auth-close">
        <path d="M6.40002 18.6534L5.34619 17.5995L10.9462 11.9995L5.34619 6.39953L6.40002 5.3457L12 10.9457L17.6 5.3457L18.6538 6.39953L13.0538 11.9995L18.6538 17.5995L17.6 18.6534L12 13.0534L6.40002 18.6534Z" />
    </symbol>

    <symbol viewBox="0 0 16 16" id="auth-submit">
        <path fill-rule="evenodd" clip-rule="evenodd" d="M12.5 8.4714C12.7734 8.21105 12.7734 7.78895 12.5 7.5286L6.90005 2.19526C6.62668 1.93491 6.18346 1.93491 5.9101 2.19526C5.63673 2.45561 5.63673 2.87772 5.9101 3.13807L11.0151 8L5.9101 12.8619C5.63673 13.1223 5.63673 13.5444 5.9101 13.8047C6.18346 14.0651 6.62668 14.0651 6.90005 13.8047L12.5 8.4714Z" />
    </symbol>

    <symbol viewBox="0 0 12 13" id="auth-back">
        <path fill-rule="evenodd" clip-rule="evenodd" d="M3.15377 6.85355C2.94874 6.65829 2.94874 6.34171 3.15377 6.14645L7.35377 2.14645C7.55879 1.95118 7.89121 1.95118 8.09623 2.14645C8.30126 2.34171 8.30126 2.65829 8.09623 2.85355L4.26746 6.5L8.09623 10.1464C8.30126 10.3417 8.30126 10.6583 8.09623 10.8536C7.89121 11.0488 7.55879 11.0488 7.35377 10.8536L3.15377 6.85355Z" />
    </symbol>

    <symbol viewBox="0 0 24 24" id="icon-user">
        <path d="M6.02308 17.2923C6.87308 16.6615 7.79903 16.1635 8.80095 15.7981C9.80287 15.4327 10.8692 15.25 12 15.25C13.1307 15.25 14.1971 15.4327 15.199 15.7981C16.2009 16.1635 17.1269 16.6615 17.9769 17.2923C18.5987 16.609 19.0913 15.8179 19.4548 14.9192C19.8182 14.0205 20 13.0474 20 12C20 9.78331 19.2208 7.89581 17.6625 6.33748C16.1041 4.77914 14.2166 3.99998 12 3.99998C9.78331 3.99998 7.89581 4.77914 6.33748 6.33748C4.77914 7.89581 3.99998 9.78331 3.99998 12C3.99998 13.0474 4.18171 14.0205 4.54518 14.9192C4.90864 15.8179 5.40128 16.609 6.02308 17.2923ZM12.0003 12.75C11.0873 12.75 10.3173 12.4366 9.69038 11.8099C9.06346 11.1831 8.75 10.4133 8.75 9.50028C8.75 8.58726 9.06336 7.81729 9.69008 7.19038C10.3168 6.56346 11.0867 6.25 11.9997 6.25C12.9127 6.25 13.6827 6.56336 14.3096 7.19008C14.9365 7.81681 15.25 8.58668 15.25 9.49968C15.25 10.4127 14.9366 11.1827 14.3099 11.8096C13.6831 12.4365 12.9133 12.75 12.0003 12.75ZM12 21.5C10.6807 21.5 9.44325 21.2519 8.2875 20.7557C7.13173 20.2596 6.12628 19.5839 5.27115 18.7288C4.41603 17.8737 3.7404 16.8682 3.24425 15.7125C2.74808 14.5567 2.5 13.3192 2.5 12C2.5 10.6807 2.74808 9.44325 3.24425 8.2875C3.7404 7.13173 4.41603 6.12628 5.27115 5.27115C6.12628 4.41603 7.13173 3.7404 8.2875 3.24425C9.44325 2.74808 10.6807 2.5 12 2.5C13.3192 2.5 14.5567 2.74808 15.7125 3.24425C16.8682 3.7404 17.8737 4.41603 18.7288 5.27115C19.5839 6.12628 20.2596 7.13173 20.7557 8.2875C21.2519 9.44325 21.5 10.6807 21.5 12C21.5 13.3192 21.2519 14.5567 20.7557 15.7125C20.2596 16.8682 19.5839 17.8737 18.7288 18.7288C17.8737 19.5839 16.8682 20.2596 15.7125 20.7557C14.5567 21.2519 13.3192 21.5 12 21.5ZM12 20C12.9025 20 13.7727 19.8548 14.6105 19.5644C15.4484 19.274 16.1923 18.8679 16.8423 18.3461C16.1923 17.8436 15.458 17.4519 14.6394 17.1711C13.8208 16.8903 12.941 16.75 12 16.75C11.0589 16.75 10.1775 16.8887 9.35573 17.1663C8.53393 17.4439 7.80123 17.8371 7.15765 18.3461C7.80765 18.8679 8.55157 19.274 9.3894 19.5644C10.2272 19.8548 11.0974 20 12 20ZM12 11.25C12.4974 11.25 12.9134 11.0827 13.2481 10.7481C13.5827 10.4134 13.75 9.99741 13.75 9.49998C13.75 9.00254 13.5827 8.58651 13.2481 8.25188C12.9134 7.91726 12.4974 7.74995 12 7.74995C11.5025 7.74995 11.0865 7.91726 10.7519 8.25188C10.4173 8.58651 10.25 9.00254 10.25 9.49998C10.25 9.99741 10.4173 10.4134 10.7519 10.7481C11.0865 11.0827 11.5025 11.25 12 11.25Z" />
    </symbol>

    <symbol viewBox="0 0 24 25" id="menu-mobile-link">
        <path d="M3.5 18.1344V16.6345H20.5V18.1344H3.5ZM3.5 13.2498V11.7499H20.5V13.2498H3.5ZM3.5 8.36521V6.86523H20.5V8.36521H3.5Z" />
    </symbol>

    <symbol viewBox="0 0 24 24" id="main-polis-more">
        <path d="M12 14.7307L15.5384 11.1923H8.46158L12 14.7307ZM12.0017 21.5C10.6877 21.5 9.45271 21.2506 8.29658 20.752C7.14043 20.2533 6.13475 19.5765 5.27953 18.7217C4.4243 17.8669 3.74724 16.8616 3.24836 15.706C2.74947 14.5504 2.50003 13.3156 2.50003 12.0017C2.50003 10.6877 2.74936 9.45268 3.24803 8.29655C3.7467 7.1404 4.42345 6.13472 5.27828 5.2795C6.13313 4.42427 7.13837 3.74721 8.29401 3.24833C9.44962 2.74944 10.6844 2.5 11.9983 2.5C13.3123 2.5 14.5473 2.74933 15.7034 3.248C16.8596 3.74667 17.8653 4.42342 18.7205 5.27825C19.5757 6.1331 20.2528 7.13834 20.7517 8.29398C21.2505 9.44959 21.5 10.6844 21.5 11.9983C21.5 13.3122 21.2506 14.5473 20.752 15.7034C20.2533 16.8596 19.5766 17.8652 18.7217 18.7205C17.8669 19.5757 16.8616 20.2527 15.706 20.7516C14.5504 21.2505 13.3156 21.5 12.0017 21.5ZM12 20C14.2333 20 16.125 19.225 17.675 17.675C19.225 16.125 20 14.2333 20 12C20 9.76664 19.225 7.87498 17.675 6.32498C16.125 4.77498 14.2333 3.99998 12 3.99998C9.76667 3.99998 7.87501 4.77498 6.32501 6.32498C4.77501 7.87498 4.00001 9.76664 4.00001 12C4.00001 14.2333 4.77501 16.125 6.32501 17.675C7.87501 19.225 9.76667 20 12 20Z" />
    </symbol>

    <symbol viewBox="0 0 24 24" id="icon-logout">
        <path d="M5.3077 20.5C4.80257 20.5 4.375 20.325 4.025 19.975C3.675 19.625 3.5 19.1974 3.5 18.6923V5.3077C3.5 4.80257 3.675 4.375 4.025 4.025C4.375 3.675 4.80257 3.5 5.3077 3.5H12.0096V4.99998H5.3077C5.23077 4.99998 5.16024 5.03203 5.09612 5.09613C5.03202 5.16024 4.99997 5.23077 4.99997 5.3077V18.6923C4.99997 18.7692 5.03202 18.8397 5.09612 18.9038C5.16024 18.9679 5.23077 19 5.3077 19H12.0096V20.5H5.3077ZM16.2308 16.2692L15.1923 15.1846L17.6269 12.75H9.09613V11.25H17.6269L15.1923 8.81538L16.2308 7.7308L20.5 12L16.2308 16.2692Z" />
    </symbol>

    <symbol viewBox="0 0 16 16" id="pager-prev">
        <path fill-rule="evenodd" clip-rule="evenodd" d="M4.20503 8.4714C3.93166 8.21105 3.93166 7.78895 4.20503 7.5286L9.80502 2.19526C10.0784 1.93491 10.5216 1.93491 10.795 2.19526C11.0683 2.45561 11.0683 2.87772 10.795 3.13807L5.68995 8L10.795 12.8619C11.0683 13.1223 11.0683 13.5444 10.795 13.8047C10.5216 14.0651 10.0784 14.0651 9.80503 13.8047L4.20503 8.4714Z" />
    </symbol>

    <symbol viewBox="0 0 16 16" id="pager-next">
        <path fill-rule="evenodd" clip-rule="evenodd" d="M11.795 7.5286C12.0683 7.78895 12.0683 8.21105 11.795 8.4714L6.19498 13.8047C5.92161 14.0651 5.47839 14.0651 5.20503 13.8047C4.93166 13.5444 4.93166 13.1223 5.20503 12.8619L10.3101 8L5.20503 3.13807C4.93166 2.87772 4.93166 2.45561 5.20503 2.19526C5.47839 1.93491 5.92161 1.93491 6.19498 2.19526L11.795 7.5286Z" />
    </symbol>

    <symbol viewBox="0 0 18 18" id="icon-download">
        <path d="M8.99998 11.8413L5.7981 8.63944L6.58847 7.82599L8.4375 9.67502V3.375H9.56246V9.67502L11.4115 7.82599L12.2019 8.63944L8.99998 11.8413ZM4.73077 14.625C4.35193 14.625 4.03125 14.4937 3.76875 14.2312C3.50625 13.9687 3.375 13.648 3.375 13.2692V11.2356H4.49998V13.2692C4.49998 13.3269 4.52402 13.3798 4.57209 13.4279C4.62018 13.4759 4.67308 13.5 4.73077 13.5H13.2692C13.3269 13.5 13.3798 13.4759 13.4279 13.4279C13.4759 13.3798 13.5 13.3269 13.5 13.2692V11.2356H14.625V13.2692C14.625 13.648 14.4937 13.9687 14.2312 14.2312C13.9687 14.4937 13.648 14.625 13.2692 14.625H4.73077Z" />
    </symbol>

    <symbol viewBox="0 0 48 49" id="icon-empty">
        <path d="M6 36.4231V34.4231H25.1154V36.4231H6ZM6 26.8462V24.8462H14.923V26.8462H6ZM6 17.2693V15.2693H14.923V17.2693H6ZM40.5846 36.5L32.8077 28.8385C32.0846 29.3795 31.2994 29.7981 30.452 30.0943C29.6045 30.3904 28.7359 30.5385 27.8461 30.5385C25.6009 30.5385 23.687 29.7622 22.1045 28.2096C20.522 26.657 19.7308 24.7603 19.7308 22.5193C19.7308 20.2782 20.5229 18.3814 22.1072 16.8289C23.6915 15.2763 25.6075 14.5 27.8552 14.5C30.1031 14.5 32.0161 15.2763 33.5943 16.8289C35.1725 18.3814 35.9616 20.2718 35.9616 22.5C35.9616 23.3897 35.8135 24.2583 35.5173 25.1058C35.2212 25.9532 34.7898 26.7257 34.2231 27.4231L42 35.0846L40.5846 36.5ZM27.8461 28.5385C29.5449 28.5385 30.9888 27.9551 32.1779 26.7885C33.367 25.6218 33.9616 24.1987 33.9616 22.5193C33.9616 20.8398 33.367 19.4167 32.1779 18.25C30.9888 17.0833 29.5449 16.5 27.8461 16.5C26.1474 16.5 24.7035 17.0833 23.5144 18.25C22.3253 19.4167 21.7308 20.8398 21.7308 22.5193C21.7308 24.1987 22.3253 25.6218 23.5144 26.7885C24.7035 27.9551 26.1474 28.5385 27.8461 28.5385Z" />
    </symbol>

    <symbol viewBox="0 0 22 22" id="icon-email">
        <path d="M3.94856 17.875C3.48552 17.875 3.09359 17.7145 2.77275 17.3937C2.45192 17.0729 2.2915 16.6809 2.2915 16.2179V5.78206C2.2915 5.31902 2.45192 4.92708 2.77275 4.60625C3.09359 4.28542 3.48552 4.125 3.94856 4.125H18.0511C18.5141 4.125 18.906 4.28542 19.2269 4.60625C19.5477 4.92708 19.7081 5.31902 19.7081 5.78206V16.2179C19.7081 16.6809 19.5477 17.0729 19.2269 17.3937C18.906 17.7145 18.5141 17.875 18.0511 17.875H3.94856ZM10.9998 11.5112L3.66648 6.82206V16.2179C3.66648 16.3002 3.69293 16.3677 3.74582 16.4206C3.79871 16.4735 3.86629 16.5 3.94856 16.5H18.0511C18.1333 16.5 18.2009 16.4735 18.2538 16.4206C18.3067 16.3677 18.3331 16.3002 18.3331 16.2179V6.82206L10.9998 11.5112ZM10.9998 10.0833L18.1921 5.49998H3.80751L10.9998 10.0833ZM3.66648 6.82206V5.49998V16.2179C3.66648 16.3002 3.69293 16.3677 3.74582 16.4206C3.79871 16.4735 3.86629 16.5 3.94856 16.5H3.66648V6.82206Z" />
    </symbol>

    <symbol viewBox="0 0 22 22" id="icon-phone">
        <path d="M17.8205 18.7903C16.0929 18.7903 14.3574 18.3887 12.614 17.5854C10.8706 16.7822 9.26877 15.649 7.80858 14.1858C6.34838 12.7227 5.21665 11.1209 4.41339 9.38042C3.61013 7.63993 3.2085 5.9059 3.2085 4.17835C3.2085 3.90083 3.30016 3.66957 3.4835 3.48455C3.66683 3.29954 3.896 3.20703 4.171 3.20703H7.1607C7.39222 3.20703 7.59642 3.28254 7.77329 3.43356C7.95016 3.58458 8.06268 3.77115 8.11085 3.99326L8.63617 6.69034C8.67261 6.94067 8.66497 7.15573 8.61326 7.33554C8.56155 7.51534 8.46871 7.66636 8.33473 7.78858L6.21759 9.84931C6.55841 10.4734 6.9477 11.0636 7.38547 11.6201C7.82324 12.1765 8.29714 12.708 8.80718 13.2146C9.31018 13.7175 9.84491 14.1847 10.4114 14.616C10.9778 15.0473 11.5895 15.4486 12.2465 15.82L14.3037 13.7452C14.4471 13.5959 14.6207 13.4913 14.8246 13.4314C15.0285 13.3715 15.2403 13.3568 15.4601 13.3873L18.0056 13.9056C18.2371 13.9667 18.426 14.0848 18.5723 14.2599C18.7186 14.435 18.7918 14.6336 18.7918 14.8558V17.8278C18.7918 18.1028 18.6993 18.332 18.5143 18.5153C18.3293 18.6987 18.098 18.7903 17.8205 18.7903ZM5.56713 8.54838L7.20303 6.98299C7.23241 6.95948 7.25151 6.92716 7.26032 6.88603C7.26914 6.84489 7.26767 6.80669 7.25592 6.77144L6.85752 4.72304C6.84577 4.67603 6.8252 4.64077 6.79583 4.61728C6.76645 4.59377 6.72825 4.58201 6.68124 4.58201H4.72097C4.68573 4.58201 4.65635 4.59377 4.63284 4.61728C4.60932 4.64077 4.59757 4.67015 4.59757 4.70542C4.64458 5.3318 4.74711 5.96818 4.90518 6.61456C5.06326 7.26093 5.28391 7.90554 5.56713 8.54838ZM13.5421 16.4705C14.1497 16.7537 14.7834 16.9702 15.4433 17.1201C16.1032 17.2699 16.7199 17.3589 17.2934 17.3871C17.3287 17.3871 17.358 17.3754 17.3815 17.3519C17.4051 17.3284 17.4168 17.299 17.4168 17.2637V15.3352C17.4168 15.2882 17.4051 15.25 17.3815 15.2206C17.358 15.1912 17.3228 15.1707 17.2758 15.1589L15.3508 14.7676C15.3155 14.7558 15.2847 14.7544 15.2582 14.7632C15.2318 14.772 15.2039 14.7911 15.1745 14.8205L13.5421 16.4705Z" />
    </symbol>

    <symbol viewBox="0 0 22 22" id="icon-location">
        <path d="M11.0017 11.3779C11.4578 11.3779 11.8477 11.2155 12.1715 10.8907C12.4953 10.5659 12.6571 10.1754 12.6571 9.71928C12.6571 9.26316 12.4947 8.87322 12.1699 8.54945C11.8451 8.22569 11.4547 8.0638 10.9985 8.0638C10.5424 8.0638 10.1525 8.22621 9.82872 8.55101C9.50495 8.87582 9.34307 9.26628 9.34307 9.7224C9.34307 10.1785 9.50547 10.5685 9.83027 10.8922C10.1551 11.216 10.5455 11.3779 11.0017 11.3779ZM11.0001 18.3886C12.7935 16.7833 14.1658 15.2435 15.1172 13.7692C16.0685 12.2949 16.5442 11.0036 16.5442 9.89535C16.5442 8.2242 16.0133 6.85038 14.9515 5.77388C13.8897 4.69738 12.5725 4.15912 11.0001 4.15912C9.42767 4.15912 8.11055 4.69738 7.04874 5.77388C5.98693 6.85038 5.45603 8.2242 5.45603 9.89535C5.45603 11.0036 5.9317 12.2949 6.88303 13.7692C7.83438 15.2435 9.20673 16.7833 11.0001 18.3886ZM11.0001 20.2184C8.69317 18.2194 6.96326 16.359 5.81037 14.6373C4.65749 12.9157 4.08105 11.335 4.08105 9.89535C4.08105 7.77999 4.76532 6.06742 6.13386 4.75764C7.50238 3.44786 9.12446 2.79297 11.0001 2.79297C12.8757 2.79297 14.4978 3.44786 15.8663 4.75764C17.2349 6.06742 17.9191 7.77999 17.9191 9.89535C17.9191 11.335 17.3427 12.9157 16.1898 14.6373C15.0369 16.359 13.307 18.2194 11.0001 20.2184Z" />
    </symbol>

    <symbol viewBox="0 0 12 12" id="back-link">
        <path fill-rule="evenodd" clip-rule="evenodd" d="M3.15377 5.64645C2.94874 5.84171 2.94874 6.15829 3.15377 6.35355L7.35377 10.3536C7.55879 10.5488 7.89121 10.5488 8.09623 10.3536C8.30126 10.1583 8.30126 9.84171 8.09623 9.64645L4.26746 6L8.09623 2.35355C8.30126 2.15829 8.30126 1.84171 8.09623 1.64645C7.89121 1.45118 7.5588 1.45118 7.35377 1.64645L3.15377 5.64645Z" />
    </symbol>

    <symbol viewBox="0 0 24 24" id="icon-edit">
        <path d="M5.0001 19H6.26162L16.4982 8.7634L15.2367 7.50188L5.0001 17.7385V19ZM3.50012 20.5V17.1154L16.6905 3.93078C16.8417 3.79343 17.0087 3.68729 17.1914 3.61237C17.3741 3.53746 17.5657 3.5 17.7662 3.5C17.9667 3.5 18.161 3.53558 18.3489 3.60675C18.5369 3.6779 18.7033 3.79103 18.8481 3.94615L20.0693 5.18268C20.2244 5.32754 20.335 5.49424 20.401 5.68278C20.4671 5.87129 20.5001 6.05981 20.5001 6.24833C20.5001 6.44941 20.4657 6.64131 20.397 6.82403C20.3284 7.00676 20.2191 7.17373 20.0693 7.32495L6.8847 20.5H3.50012ZM15.8564 8.1437L15.2367 7.50188L16.4982 8.7634L15.8564 8.1437Z" />
    </symbol>

    <symbol viewBox="0 0 24 24" id="icon-add">
        <path d="M11.25 16.75H12.75V12.75H16.75V11.25H12.75V7.25H11.25V11.25H7.25003V12.75H11.25V16.75ZM12.0017 21.5C10.6877 21.5 9.45271 21.2506 8.29658 20.752C7.14043 20.2533 6.13475 19.5765 5.27953 18.7217C4.4243 17.8669 3.74724 16.8616 3.24836 15.706C2.74947 14.5504 2.50003 13.3156 2.50003 12.0017C2.50003 10.6877 2.74936 9.45268 3.24803 8.29655C3.7467 7.1404 4.42345 6.13472 5.27828 5.2795C6.13313 4.42427 7.13837 3.74721 8.29401 3.24833C9.44962 2.74944 10.6844 2.5 11.9983 2.5C13.3123 2.5 14.5473 2.74933 15.7034 3.248C16.8596 3.74667 17.8653 4.42342 18.7205 5.27825C19.5757 6.1331 20.2528 7.13834 20.7517 8.29398C21.2505 9.44959 21.5 10.6844 21.5 11.9983C21.5 13.3122 21.2506 14.5473 20.752 15.7034C20.2533 16.8596 19.5766 17.8652 18.7217 18.7205C17.8669 19.5757 16.8616 20.2527 15.706 20.7516C14.5504 21.2505 13.3156 21.5 12.0017 21.5ZM12 20C14.2333 20 16.125 19.225 17.675 17.675C19.225 16.125 20 14.2333 20 12C20 9.76664 19.225 7.87498 17.675 6.32498C16.125 4.77498 14.2333 3.99998 12 3.99998C9.76667 3.99998 7.87501 4.77498 6.32501 6.32498C4.77501 7.87498 4.00001 9.76664 4.00001 12C4.00001 14.2333 4.77501 16.125 6.32501 17.675C7.87501 19.225 9.76667 20 12 20Z" />
    </symbol>

    <symbol viewBox="0 0 16 16" id="apps-close">
        <path d="M13.5303 3.53033C13.8232 3.23744 13.8232 2.76256 13.5303 2.46967C13.2374 2.17678 12.7626 2.17678 12.4697 2.46967L8 6.93934L3.53033 2.46967C3.23744 2.17678 2.76256 2.17678 2.46967 2.46967C2.17678 2.76256 2.17678 3.23744 2.46967 3.53033L6.93934 8L2.46967 12.4697C2.17678 12.7626 2.17678 13.2374 2.46967 13.5303C2.76256 13.8232 3.23744 13.8232 3.53033 13.5303L8 9.06066L12.4697 13.5303C12.7626 13.8232 13.2374 13.8232 13.5303 13.5303C13.8232 13.2374 13.8232 12.7626 13.5303 12.4697L9.06066 8L13.5303 3.53033Z" />
    </symbol>

    <symbol viewBox="0 0 34 34" id="icon-info">
        <path d="M15.9368 23.7294H18.0618V15.5836H15.9368V23.7294ZM16.9993 13.159C17.3235 13.159 17.5953 13.0493 17.8146 12.83C18.0339 12.6107 18.1435 12.339 18.1435 12.0148C18.1435 11.6906 18.0339 11.4188 17.8146 11.1995C17.5953 10.9802 17.3235 10.8706 16.9993 10.8706C16.6751 10.8706 16.4034 10.9802 16.1841 11.1995C15.9648 11.4188 15.8551 11.6906 15.8551 12.0148C15.8551 12.339 15.9648 12.6107 16.1841 12.83C16.4034 13.0493 16.6751 13.159 16.9993 13.159ZM17.0017 30.4586C15.1403 30.4586 13.3907 30.1054 11.7528 29.3989C10.1149 28.6925 8.6902 27.7338 7.47864 26.5227C6.26706 25.3117 5.30789 23.8876 4.60114 22.2505C3.89439 20.6133 3.54102 18.8641 3.54102 17.0027C3.54102 15.1413 3.89424 13.3916 4.60068 11.7538C5.30713 10.1159 6.26586 8.69118 7.47687 7.47962C8.68791 6.26804 10.112 5.30887 11.7491 4.60212C13.3863 3.89537 15.1355 3.54199 16.9969 3.54199C18.8583 3.54199 20.608 3.89522 22.2458 4.60166C23.8837 5.3081 25.3084 6.26683 26.52 7.47785C27.7316 8.68888 28.6907 10.113 29.3975 11.7501C30.1042 13.3872 30.4576 15.1365 30.4576 16.9979C30.4576 18.8593 30.1044 20.609 29.3979 22.2468C28.6915 23.8847 27.7328 25.3094 26.5218 26.521C25.3107 27.7325 23.8866 28.6917 22.2495 29.3985C20.6124 30.1052 18.8631 30.4586 17.0017 30.4586ZM16.9993 28.3336C20.1632 28.3336 22.8431 27.2357 25.0389 25.0399C27.2347 22.844 28.3326 20.1642 28.3326 17.0003C28.3326 13.8364 27.2347 11.1565 25.0389 8.96071C22.8431 6.76487 20.1632 5.66696 16.9993 5.66696C13.8354 5.66696 11.1556 6.76487 8.95973 8.96071C6.7639 11.1565 5.66598 13.8364 5.66598 17.0003C5.66598 20.1642 6.7639 22.844 8.95973 25.0399C11.1556 27.2357 13.8354 28.3336 16.9993 28.3336Z" />
    </symbol>

    <symbol viewBox="0 0 16 16" id="faq-arrow">
        <path fill-rule="evenodd" clip-rule="evenodd" d="M7.52866 12.498C7.78901 12.7714 8.21112 12.7714 8.47147 12.498L13.8048 6.89805C14.0651 6.62468 14.0651 6.18147 13.8048 5.9081C13.5444 5.63473 13.1223 5.63473 12.862 5.9081L8.00006 11.0131L3.13813 5.9081C2.87778 5.63473 2.45567 5.63473 2.19532 5.9081C1.93497 6.18146 1.93497 6.62468 2.19532 6.89805L7.52866 12.498Z" />
    </symbol>

    <symbol viewBox="0 0 20 21" id="icon-checkbox-hint">
        <path d="M9.37468 14.4589H10.6246V9.6673H9.37468V14.4589ZM9.99965 8.24103C10.1904 8.24103 10.3502 8.17653 10.4792 8.04753C10.6082 7.91853 10.6727 7.75867 10.6727 7.56796C10.6727 7.37727 10.6082 7.21742 10.4792 7.0884C10.3502 6.9594 10.1904 6.8949 9.99965 6.8949C9.80895 6.8949 9.64909 6.9594 9.52009 7.0884C9.39109 7.21742 9.32659 7.37727 9.32659 7.56796C9.32659 7.75867 9.39109 7.91853 9.52009 8.04753C9.64909 8.17653 9.80895 8.24103 9.99965 8.24103ZM10.001 18.4173C8.90611 18.4173 7.87691 18.2095 6.91347 17.7939C5.95001 17.3784 5.11194 16.8144 4.39926 16.1021C3.68656 15.3897 3.12235 14.552 2.70661 13.589C2.29088 12.626 2.08301 11.597 2.08301 10.502C2.08301 9.40708 2.29079 8.37789 2.70634 7.41444C3.1219 6.45098 3.68586 5.61292 4.39822 4.90024C5.11059 4.18754 5.94829 3.62333 6.91132 3.20759C7.87433 2.79185 8.90331 2.58398 9.99826 2.58398C11.0932 2.58398 12.1224 2.79176 13.0858 3.20732C14.0493 3.62287 14.8874 4.18683 15.6001 4.89919C16.3127 5.61157 16.877 6.44927 17.2927 7.4123C17.7084 8.37531 17.9163 9.40429 17.9163 10.4992C17.9163 11.5942 17.7085 12.6234 17.293 13.5868C16.8774 14.5503 16.3135 15.3883 15.6011 16.101C14.8887 16.8137 14.051 17.3779 13.088 17.7937C12.125 18.2094 11.096 18.4173 10.001 18.4173ZM9.99965 17.1673C11.8608 17.1673 13.4372 16.5215 14.7288 15.2298C16.0205 13.9381 16.6663 12.3617 16.6663 10.5006C16.6663 8.63952 16.0205 7.06313 14.7288 5.77146C13.4372 4.4798 11.8608 3.83396 9.99965 3.83396C8.13854 3.83396 6.56215 4.4798 5.27049 5.77146C3.97882 7.06313 3.33299 8.63952 3.33299 10.5006C3.33299 12.3617 3.97882 13.9381 5.27049 15.2298C6.56215 16.5215 8.13854 17.1673 9.99965 17.1673Z" />
    </symbol>

    <symbol viewBox="0 0 24 24" id="icon-add-polis">
        <path d="M11.25 12.75H5.5V11.25H11.25V5.5H12.7499V11.25H18.5V12.75H12.7499V18.5H11.25V12.75Z" />
    </symbol>

    <symbol viewBox="0 0 16 17" id="back-link-form">
        <path d="M9.33172 12.2689L5.5625 8.49969L9.33172 4.73047L10.0343 5.43302L6.9676 8.49969L10.0343 11.5664L9.33172 12.2689Z" />
    </symbol>

    <symbol viewBox="0 0 24 24" id="clinics-status-success">
        <path d="M10.9999 12.8846C11.2512 12.8846 11.4614 12.7984 11.6307 12.6259C11.7999 12.4535 11.8845 12.2448 11.8845 12C11.8845 11.7487 11.7999 11.5384 11.6307 11.3692C11.4614 11.2 11.2512 11.1154 10.9999 11.1154C10.755 11.1154 10.5464 11.2 10.3739 11.3692C10.2015 11.5384 10.1153 11.7487 10.1153 12C10.1153 12.2448 10.2015 12.4535 10.3739 12.6259C10.5464 12.7984 10.755 12.8846 10.9999 12.8846ZM6.99989 20.5V19L13.4999 18.1538V6.66343C13.4999 6.34931 13.4009 6.07303 13.2028 5.83458C13.0047 5.59611 12.757 5.46021 12.4595 5.42688L7.30761 4.74995V3.25L12.673 3.95768C13.3486 4.05896 13.9053 4.36216 14.3432 4.86728C14.781 5.37241 14.9999 5.96279 14.9999 6.63843V19.4192L6.99989 20.5ZM3.73071 20.5V19H5.49991V5.05768C5.49991 4.54229 5.67652 4.11217 6.02974 3.7673C6.38294 3.42243 6.8089 3.25 7.30761 3.25H16.6922C17.2075 3.25 17.6377 3.42243 17.9825 3.7673C18.3274 4.11217 18.4999 4.54229 18.4999 5.05768V19H20.2691V20.5H3.73071ZM6.99989 19H16.9999V5.05768C16.9999 4.96793 16.971 4.8942 16.9133 4.8365C16.8556 4.7788 16.7819 4.74995 16.6922 4.74995H7.30761C7.21786 4.74995 7.14414 4.7788 7.08644 4.8365C7.02874 4.8942 6.99989 4.96793 6.99989 5.05768V19Z" />
    </symbol>

    <symbol viewBox="0 0 24 24" id="clinics-status-guarantee">
        <path d="M13.8269 21.5V18.8577L19.2557 13.4538C19.3801 13.3359 19.5143 13.25 19.6585 13.1961C19.8026 13.1423 19.9468 13.1154 20.091 13.1154C20.2482 13.1154 20.4003 13.1449 20.5473 13.2038C20.6942 13.2628 20.8278 13.3513 20.948 13.4692L21.873 14.4038C21.9807 14.5282 22.064 14.6628 22.123 14.8077C22.182 14.9525 22.2115 15.0974 22.2115 15.2423C22.2115 15.3871 22.1845 15.5346 22.1307 15.6846C22.0769 15.8346 21.991 15.9718 21.873 16.0961L16.4692 21.5H13.8269ZM15.0192 20.3077H15.9692L19.2154 17.0461L18.7654 16.5612L18.2904 16.1019L15.0192 19.3577V20.3077ZM6.3077 21.5C5.80257 21.5 5.375 21.325 5.025 20.975C4.675 20.625 4.5 20.1974 4.5 19.6923V4.3077C4.5 3.80257 4.675 3.375 5.025 3.025C5.375 2.675 5.80257 2.5 6.3077 2.5H14.25L19.5 7.74995V10.548H18V8.49995H13.5V3.99998H6.3077C6.23077 3.99998 6.16024 4.03203 6.09612 4.09613C6.03202 4.16024 5.99997 4.23077 5.99997 4.3077V19.6923C5.99997 19.7692 6.03202 19.8397 6.09612 19.9038C6.16024 19.9679 6.23077 20 6.3077 20H11.6346V21.5H6.3077ZM18.7654 16.5612L18.2904 16.1019L19.2154 17.0461L18.7654 16.5612Z" />
    </symbol>

    <symbol viewBox="0 0 24 24" id="clinics-bookmark">
        <path d="M5.5 20.2499V5.3077C5.5 4.80257 5.675 4.375 6.025 4.025C6.375 3.675 6.80257 3.5 7.3077 3.5H16.6922C17.1974 3.5 17.625 3.675 17.975 4.025C18.325 4.375 18.5 4.80257 18.5 5.3077V20.2499L12 17.4615L5.5 20.2499ZM6.99997 17.95L12 15.8L17 17.95V5.3077C17 5.23077 16.9679 5.16024 16.9038 5.09613C16.8397 5.03203 16.7692 4.99998 16.6922 4.99998H7.3077C7.23077 4.99998 7.16024 5.03203 7.09613 5.09613C7.03202 5.16024 6.99997 5.23077 6.99997 5.3077V17.95Z" />
    </symbol>

    <symbol viewBox="0 0 24 24" id="clinics-bookmark-active">
        <path d="M5.5 20.2499V5.3077C5.5 4.80257 5.675 4.375 6.025 4.025C6.375 3.675 6.80257 3.5 7.3077 3.5H16.6922C17.1974 3.5 17.625 3.675 17.975 4.025C18.325 4.375 18.5 4.80257 18.5 5.3077V20.2499L12 17.4615L5.5 20.2499Z" />
    </symbol>

    <symbol viewBox="0 0 20 20" id="clinics-filter">
        <path d="M9.37504 17.2923V12.709H10.625V14.3757H17.2917V15.6256H10.625V17.2923H9.37504ZM2.70837 15.6256V14.3757H7.29167V15.6256H2.70837ZM6.04171 12.2923V10.6256H2.70837V9.37565H6.04171V7.70898H7.29167V12.2923H6.04171ZM9.37504 10.6256V9.37565H17.2917V10.6256H9.37504ZM12.7084 7.29228V2.70898H13.9583V4.37565H17.2917V5.62561H13.9583V7.29228H12.7084ZM2.70837 5.62561V4.37565H10.625V5.62561H2.70837Z" />
    </symbol>

    <symbol viewBox="0 0 12 12" id="clinics-filter-param-remove">
        <path d="M10.1477 2.64775C10.3674 2.42808 10.3674 2.07192 10.1477 1.85225C9.92808 1.63258 9.57192 1.63258 9.35225 1.85225L6 5.2045L2.64775 1.85225C2.42808 1.63258 2.07192 1.63258 1.85225 1.85225C1.63258 2.07192 1.63258 2.42808 1.85225 2.64775L5.2045 6L1.85225 9.35225C1.63258 9.57192 1.63258 9.92808 1.85225 10.1477C2.07192 10.3674 2.42808 10.3674 2.64775 10.1477L6 6.7955L9.35225 10.1477C9.57192 10.3674 9.92808 10.3674 10.1477 10.1477C10.3674 9.92808 10.3674 9.57192 10.1477 9.35225L6.7955 6L10.1477 2.64775Z" />
    </symbol>

    <symbol viewBox="0 0 20 20" id="clinics-filter-search">
        <path d="M9.16667 15.8333C12.8486 15.8333 15.8333 12.8486 15.8333 9.16667C15.8333 5.48477 12.8486 2.5 9.16667 2.5C5.48477 2.5 2.5 5.48477 2.5 9.16667C2.5 12.8486 5.48477 15.8333 9.16667 15.8333Z" stroke-width="1.6" stroke-linecap="round" stroke-linejoin="round" />
        <path d="M17.5 17.5L13.875 13.875" stroke-width="1.6" stroke-linecap="round" stroke-linejoin="round" />
    </symbol>

    <symbol viewBox="0 0 24 24" id="clinics-map-detail-close">
        <path d="M6.40002 18.6534L5.34619 17.5995L10.9462 11.9995L5.34619 6.39953L6.40002 5.3457L12 10.9457L17.6 5.3457L18.6538 6.39953L13.0538 11.9995L18.6538 17.5995L17.6 18.6534L12 13.0534L6.40002 18.6534Z" />
    </symbol>

    <symbol viewBox="0 0 48 48" id="clinics-map-list-link">
        <path d="M10 29V27H38V29H10ZM10 21V19H38V21H10Z" />
    </symbol>

    <symbol viewBox="0 0 48 48" id="clinics-map-list-close">
        <path d="M12.7991 37.3067L10.6914 35.1991L21.8914 23.9991L10.6914 12.7991L12.7991 10.6914L23.9991 21.8914L35.1991 10.6914L37.3067 12.7991L26.1067 23.9991L37.3067 35.1991L35.1991 37.3067L23.9991 26.1067L12.7991 37.3067Z" />
    </symbol>

    <symbol viewBox="0 0 26 26" id="main-alert-close">
        <path d="M6.93329 20.5834L5.41663 19.0667L11.4833 13.0001L5.41663 6.93341L6.93329 5.41675L13 11.4834L19.0666 5.41675L20.5833 6.93341L14.5166 13.0001L20.5833 19.0667L19.0666 20.5834L13 14.5167L6.93329 20.5834Z" />
    </symbol>

    <symbol viewBox="0 0 37 36" id="fingerprint">
        <path d="M18.8418 6.78438C21.4848 6.78438 23.9783 7.35313 26.3223 8.49063C28.666 9.62813 30.6206 11.2671 32.1861 13.4076C32.3419 13.6036 32.3909 13.782 32.3331 13.9428C32.2754 14.1033 32.1764 14.2364 32.0361 14.3421C31.8956 14.4479 31.7376 14.495 31.5621 14.4835C31.3866 14.4722 31.233 14.3751 31.1013 14.1921C29.707 12.2229 27.924 10.7171 25.7523 9.67488C23.5808 8.63263 21.2773 8.1115 18.8418 8.1115C16.4168 8.1115 14.137 8.63738 12.0025 9.68913C9.86775 10.7411 8.09563 12.2421 6.68613 14.1921C6.54563 14.3979 6.385 14.5085 6.20425 14.524C6.0235 14.5393 5.86288 14.4893 5.72238 14.374C5.58113 14.2683 5.49538 14.136 5.46513 13.9773C5.43488 13.8185 5.48025 13.6536 5.60125 13.4826C7.16101 11.3769 9.10038 9.73413 11.4194 8.55438C13.7386 7.37438 16.2128 6.78438 18.8418 6.78438ZM18.8425 10.3094C22.1978 10.3094 25.0806 11.4275 27.4911 13.6638C29.9019 15.9 31.1073 18.6704 31.1073 21.9749C31.1073 23.2044 30.6719 24.231 29.8011 25.0548C28.9304 25.8785 27.8696 26.2904 26.6189 26.2904C25.3726 26.2904 24.3005 25.8785 23.4025 25.0548C22.5043 24.231 22.0551 23.2044 22.0551 21.9749C22.0551 21.1306 21.7419 20.4176 21.1154 19.8359C20.4886 19.2541 19.7404 18.9633 18.8706 18.9633C17.9931 18.9633 17.2381 19.2529 16.6056 19.8321C15.9734 20.4111 15.6573 21.1254 15.6573 21.9749C15.6573 24.4286 16.3856 26.4776 17.8424 28.1219C19.2991 29.7661 21.165 30.9133 23.44 31.5633C23.6413 31.6293 23.7781 31.7393 23.8506 31.8933C23.9229 32.0473 23.934 32.2123 23.884 32.3883C23.834 32.5423 23.7436 32.6769 23.6129 32.7921C23.4821 32.9076 23.3091 32.9404 23.0939 32.8904C20.5321 32.2404 18.4311 30.9536 16.7909 29.0301C15.1504 27.1064 14.3301 24.7546 14.3301 21.9749C14.3301 20.7441 14.7754 19.7134 15.6659 18.8826C16.5561 18.0519 17.6248 17.6365 18.8718 17.6365C20.1185 17.6365 21.1819 18.0519 22.0619 18.8826C22.9421 19.7134 23.3823 20.7441 23.3823 21.9749C23.3823 22.8244 23.7029 23.5386 24.3441 24.1176C24.9854 24.6969 25.7421 24.9865 26.6144 24.9865C27.4864 24.9865 28.232 24.6956 28.8513 24.1139C29.4705 23.5321 29.7801 22.8191 29.7801 21.9749C29.7801 19.0504 28.7066 16.5924 26.5596 14.6009C24.4124 12.6091 21.8484 11.6133 18.8676 11.6133C15.8869 11.6133 13.3269 12.6105 11.1876 14.605C9.04813 16.5995 7.97838 19.0484 7.97838 21.9516C7.97838 22.5566 8.04188 23.3127 8.16888 24.22C8.29563 25.127 8.56675 26.1805 8.98225 27.3805C9.0475 27.5767 9.04363 27.7504 8.97063 27.9014C8.89763 28.0524 8.77075 28.1654 8.59 28.2404C8.40926 28.3154 8.23713 28.3136 8.07363 28.2351C7.91013 28.1564 7.79563 28.0274 7.73013 27.8481C7.34563 26.8441 7.06976 25.8658 6.90251 24.913C6.73501 23.96 6.65125 22.9806 6.65125 21.9749C6.65125 18.6704 7.8505 15.9 10.249 13.6638C12.6475 11.4275 15.512 10.3094 18.8425 10.3094ZM18.8706 3.10938C20.4579 3.10938 22.008 3.30313 23.521 3.69063C25.034 4.07812 26.4974 4.63437 27.9111 5.35938C28.1264 5.47487 28.2504 5.61288 28.2831 5.77338C28.3159 5.93388 28.2995 6.09213 28.234 6.24813C28.1688 6.40388 28.0558 6.52213 27.895 6.60288C27.7345 6.68363 27.5533 6.67113 27.3513 6.56538C26.036 5.86138 24.665 5.33063 23.2383 4.97313C21.8115 4.61538 20.3533 4.4365 18.8635 4.4365C17.399 4.4365 15.962 4.61488 14.5525 4.97163C13.1428 5.32838 11.786 5.85963 10.4823 6.56538C10.3303 6.66138 10.1663 6.683 9.99025 6.63025C9.81426 6.57725 9.68588 6.46525 9.60513 6.29425C9.52438 6.123 9.50188 5.96338 9.53763 5.81538C9.57313 5.66713 9.67638 5.54013 9.84738 5.43438C11.2379 4.67488 12.6956 4.0975 14.2206 3.70225C15.7456 3.307 17.2956 3.10938 18.8706 3.10938ZM18.8714 13.9615C21.1766 13.9615 23.1548 14.7331 24.8058 16.2764C26.4568 17.8196 27.2823 19.7191 27.2823 21.9749C27.2823 22.1739 27.2214 22.3343 27.0996 22.456C26.9781 22.5775 26.8179 22.6383 26.6189 22.6383C26.4476 22.6383 26.2943 22.5775 26.1588 22.456C26.023 22.3343 25.9551 22.1739 25.9551 21.9749C25.9551 20.0806 25.2544 18.4926 23.8529 17.2109C22.4511 15.9291 20.7905 15.2882 18.871 15.2882C16.9515 15.2882 15.2985 15.9291 13.912 17.2109C12.5255 18.4926 11.8323 20.0803 11.8323 21.9738C11.8323 24.0188 12.187 25.7499 12.8965 27.1671C13.6063 28.5844 14.6361 30.0143 15.9861 31.4568C16.1361 31.6085 16.2039 31.7724 16.1894 31.9484C16.1749 32.1244 16.1071 32.273 15.9861 32.3943C15.8554 32.525 15.702 32.5928 15.526 32.5975C15.35 32.6023 15.1918 32.5345 15.0513 32.3943C13.6053 30.8635 12.4861 29.2894 11.6939 27.6719C10.9014 26.0546 10.5051 24.1555 10.5051 21.9745C10.5051 19.719 11.3231 17.8196 12.9591 16.2764C14.5954 14.7331 16.5661 13.9615 18.8714 13.9615ZM18.8159 21.3115C19.0139 21.3115 19.1744 21.3779 19.2974 21.5106C19.4206 21.6431 19.4823 21.7979 19.4823 21.9749C19.4823 23.8794 20.1644 25.4411 21.5286 26.6601C22.8931 27.8789 24.4899 28.4883 26.3189 28.4883C26.5169 28.4883 26.7534 28.4758 27.0284 28.4508C27.3034 28.4258 27.586 28.3883 27.8763 28.3382C28.063 28.298 28.2231 28.3245 28.3566 28.4178C28.4904 28.511 28.5823 28.6566 28.6323 28.8546C28.6823 29.0309 28.6495 29.185 28.534 29.317C28.4188 29.4493 28.2708 29.5404 28.09 29.5904C27.7265 29.6864 27.3808 29.7479 27.0528 29.7749C26.725 29.8019 26.4804 29.8154 26.3189 29.8154C24.1226 29.8154 22.213 29.0721 20.59 27.5856C18.9668 26.0994 18.1551 24.2291 18.1551 21.9749C18.1551 21.7979 18.2158 21.6431 18.337 21.5106C18.458 21.3779 18.6176 21.3115 18.8159 21.3115Z" />
    </symbol>

    <symbol viewBox="0 0 31 30" id="backspace">
        <path d="M27.666 3.75H8.91602C8.05352 3.75 7.37852 4.1875 6.92852 4.85L0.166016 15L6.92852 25.1375C7.37852 25.8 8.05352 26.25 8.91602 26.25H27.666C29.041 26.25 30.166 25.125 30.166 23.75V6.25C30.166 4.875 29.041 3.75 27.666 3.75ZM27.666 23.75H9.00352L3.16602 15L8.99102 6.25H27.666V23.75ZM13.1785 21.25L17.666 16.7625L22.1535 21.25L23.916 19.4875L19.4285 15L23.916 10.5125L22.1535 8.75L17.666 13.2375L13.1785 8.75L11.416 10.5125L15.9035 15L11.416 19.4875L13.1785 21.25Z" />
    </symbol>

    <symbol viewBox="0 0 20 20" id="icon-help">
        <path d="M9.99051 14.68C10.2284 14.68 10.4294 14.5979 10.5934 14.4338C10.7575 14.2695 10.8395 14.0683 10.8395 13.8302C10.8395 13.5923 10.7573 13.3913 10.593 13.2273C10.4287 13.0634 10.2276 12.9815 9.98967 12.9815C9.75176 12.9815 9.55079 13.0636 9.38676 13.2279C9.22273 13.3922 9.14072 13.5934 9.14072 13.8313C9.14072 14.0692 9.22287 14.2702 9.38717 14.4342C9.55148 14.5981 9.75259 14.68 9.99051 14.68ZM9.4003 11.6961H10.5734C10.5841 11.2859 10.6442 10.9582 10.7536 10.7129C10.8632 10.4678 11.129 10.1428 11.5509 9.73794C11.9175 9.37142 12.1981 9.03294 12.393 8.72253C12.588 8.41225 12.6855 8.04579 12.6855 7.62315C12.6855 6.90579 12.4278 6.34544 11.9124 5.94211C11.3968 5.53892 10.787 5.33732 10.083 5.33732C9.38745 5.33732 8.8119 5.52294 8.35634 5.89419C7.90065 6.26544 7.57558 6.70266 7.38113 7.20586L8.45155 7.63523C8.55308 7.35857 8.72669 7.08905 8.97238 6.82669C9.21808 6.56447 9.58294 6.43336 10.067 6.43336C10.5595 6.43336 10.9235 6.56822 11.159 6.83794C11.3947 7.1078 11.5126 7.40454 11.5126 7.72815C11.5126 8.01135 11.4319 8.27044 11.2705 8.50544C11.1093 8.74044 10.9036 8.96746 10.6536 9.18648C10.1066 9.6801 9.76092 10.0738 9.61676 10.3677C9.47245 10.6615 9.4003 11.1043 9.4003 11.6961ZM10.0011 17.9173C8.90613 17.9173 7.8769 17.7095 6.91342 17.294C5.94995 16.8784 5.1119 16.3145 4.39926 15.6021C3.68662 14.8897 3.12238 14.052 2.70655 13.089C2.29085 12.1259 2.08301 11.097 2.08301 10.0021C2.08301 8.90711 2.29079 7.87787 2.70634 6.9144C3.1219 5.95093 3.68586 5.11287 4.39822 4.40023C5.11058 3.6876 5.94829 3.12336 6.91134 2.70753C7.8744 2.29183 8.90335 2.08398 9.99822 2.08398C11.0932 2.08398 12.1225 2.29176 13.0859 2.70732C14.0494 3.12287 14.8875 3.68683 15.6001 4.39919C16.3127 5.11155 16.877 5.94926 17.2928 6.91232C17.7085 7.87537 17.9163 8.90433 17.9163 9.99919C17.9163 11.0942 17.7086 12.1234 17.293 13.0869C16.8775 14.0504 16.3135 14.8884 15.6011 15.6011C14.8888 16.3137 14.0511 16.8779 13.088 17.2938C12.125 17.7095 11.096 17.9173 10.0011 17.9173ZM9.99967 16.6673C11.8608 16.6673 13.4372 16.0215 14.7288 14.7298C16.0205 13.4382 16.6663 11.8618 16.6663 10.0007C16.6663 8.13954 16.0205 6.56315 14.7288 5.27148C13.4372 3.97982 11.8608 3.33398 9.99967 3.33398C8.13856 3.33398 6.56217 3.97982 5.27051 5.27148C3.97884 6.56315 3.33301 8.13954 3.33301 10.0007C3.33301 11.8618 3.97884 13.4382 5.27051 14.7298C6.56217 16.0215 8.13856 16.6673 9.99967 16.6673Z" />
    </symbol>

    <symbol viewBox="0 0 22 22" id="card-guarantee-form-link">
        <path d="M12.6748 19.7077V17.2856L17.6511 12.332C17.7651 12.2239 17.8881 12.1453 18.0203 12.0959C18.1524 12.0466 18.2846 12.0219 18.4168 12.0219C18.561 12.0219 18.7004 12.0489 18.835 12.1028C18.9697 12.1569 19.0922 12.238 19.2023 12.3462L20.0503 13.2028C20.1489 13.3169 20.2253 13.4404 20.2794 13.5731C20.3335 13.7059 20.3605 13.8386 20.3605 13.9714C20.3605 14.1042 20.3359 14.2393 20.2865 14.3768C20.2372 14.5143 20.1584 14.64 20.0503 14.754L15.0968 19.7077H12.6748ZM13.7676 18.6148H14.6385L17.614 15.6248L17.2015 15.1805L16.7661 14.7595L13.7676 17.744V18.6148ZM5.7821 19.7077C5.31903 19.7077 4.92708 19.5473 4.60625 19.2264C4.28542 18.9056 4.125 18.5136 4.125 18.0506V3.94812C4.125 3.48505 4.28542 3.0931 4.60625 2.77227C4.92708 2.45143 5.31903 2.29102 5.7821 2.29102H13.0625L17.875 7.10352V9.66835H16.5V7.79102H12.375V3.66602H5.7821C5.71152 3.66602 5.6469 3.69542 5.58823 3.75424C5.52941 3.81291 5.5 3.87754 5.5 3.94812V18.0506C5.5 18.1212 5.52941 18.1858 5.58823 18.2445C5.6469 18.3033 5.71152 18.3327 5.7821 18.3327H10.665V19.7077H5.7821ZM17.2015 15.1805L16.7661 14.7595L17.614 15.6248L17.2015 15.1805Z" />
    </symbol>

    <symbol viewBox="0 0 22 22" id="card-guarantee-form-back">
        <path d="M9.16659 5.5L10.4499 6.82917L7.19575 10.0833L18.3333 10.0833L18.3333 11.9167L7.19575 11.9167L10.4499 15.1708L9.16658 16.5L3.66659 11L9.16659 5.5Z" />
    </symbol>

    <symbol viewBox="0 0 38 38" id="dashboard-header-phone">
        <path d="M34.8333 26.7895V31.5395C34.8351 31.9805 34.7447 32.4169 34.5681 32.821C34.3914 33.225 34.1323 33.5877 33.8074 33.8858C33.4825 34.1839 33.0988 34.4109 32.6811 34.5521C32.2634 34.6934 31.8208 34.7459 31.3816 34.7062C26.5094 34.1768 21.8294 32.5119 17.7174 29.8453C13.8918 27.4144 10.6484 24.1709 8.21744 20.3453C5.54157 16.2147 3.87632 11.5119 3.3566 6.61784C3.31703 6.17999 3.36907 5.73871 3.50939 5.32207C3.64972 4.90544 3.87526 4.52259 4.17165 4.1979C4.46804 3.87321 4.82879 3.61379 5.23094 3.43616C5.63308 3.25853 6.06781 3.16658 6.50744 3.16617H11.2574C12.0258 3.15861 12.7708 3.43071 13.3534 3.93176C13.936 4.43281 14.3166 5.12863 14.4241 5.8895C14.6246 7.40961 14.9964 8.90215 15.5324 10.3387C15.7455 10.9054 15.7916 11.5213 15.6653 12.1134C15.539 12.7055 15.2456 13.249 14.8199 13.6795L12.8091 15.6903C15.0631 19.6543 18.3452 22.9364 22.3091 25.1903L24.3199 23.1795C24.7504 22.7538 25.2939 22.4604 25.886 22.3342C26.4782 22.2079 27.0941 22.254 27.6608 22.467C29.0973 23.003 30.5898 23.3749 32.1099 23.5753C32.8791 23.6838 33.5815 24.0712 34.0836 24.6639C34.5857 25.2565 34.8525 26.013 34.8333 26.7895Z" stroke-width="2" stroke-linecap="round" stroke-linejoin="round" />
    </symbol>

    <symbol viewBox="0 0 17 15" id="icon-home">
        <path fill-rule="evenodd" clip-rule="evenodd" d="M9.90146 2.10124C9.55486 1.81562 8.82864 1.1545 8.46554 0.99072C7.51376 1.7557 6.56198 2.54664 5.61753 3.31762L2.76219 5.64052L2.7732 14.1172H6.34558C6.45195 12.771 6.36209 10.9634 6.36209 9.56928C6.36209 7.62587 6.35475 7.80563 8.97169 7.80563C10.9119 7.80563 10.6313 8.15117 10.6313 10.1205C10.6313 11.3369 10.5488 12.9508 10.6478 14.1192L14.2294 14.1112C14.2991 12.797 14.2459 9.28366 14.2459 7.7577L14.2367 5.64052L9.90146 2.09924V2.10124ZM15.0491 6.34758C14.9538 8.62454 15.1518 12.2457 15.0363 14.0593C14.9758 15.006 14.3633 14.9861 13.527 14.9821C12.755 14.9781 11.9829 14.9821 11.2127 14.9821C10.0317 14.9821 9.82811 15.2377 9.83544 13.9035C9.84644 12.1638 9.83544 10.4181 9.83544 8.67847L7.16165 8.67048V13.9035C7.16716 14.6185 7.24234 14.9821 6.51063 14.9821H3.03911C1.61419 14.9821 1.95529 13.8855 1.95529 11.305C1.95529 9.68712 2.00664 7.95943 1.94245 6.35357C1.49866 6.6272 1.10987 7.0786 0.662411 7.38419C0.359821 7.58992 0.0297222 7.49605 0.00221443 7.12254C-0.0271282 6.73706 0.337814 6.57128 0.517534 6.42947C1.40329 5.7284 2.25788 4.99738 3.15464 4.26236C3.47374 4.00071 8.18495 0.0180166 8.47471 4.05662e-05C8.79013 -0.0179355 15.9147 5.94411 16.4411 6.39751C16.6318 6.56129 16.9839 6.71708 17.0004 7.05663C17.0169 7.43213 16.6868 7.58992 16.3824 7.41415C16.144 7.27634 15.4379 6.58925 15.0491 6.34758Z" />
    </symbol>

    <symbol viewBox="0 0 25 24" id="ext-link">
        <path d="M5.69837 19.5C5.19321 19.5 4.76562 19.325 4.41563 18.975C4.06563 18.625 3.89062 18.1974 3.89062 17.6923V4.30775C3.89062 3.80258 4.06563 3.375 4.41563 3.025C4.76562 2.675 5.19321 2.5 5.69837 2.5H12.0059V4H5.69837C5.62137 4 5.55088 4.03208 5.48688 4.09625C5.42271 4.16025 5.39062 4.23075 5.39062 4.30775V17.6923C5.39062 17.7692 5.42271 17.8398 5.48688 17.9038C5.55088 17.9679 5.62137 18 5.69837 18H19.0829C19.1599 18 19.2304 17.9679 19.2944 17.9038C19.3585 17.8398 19.3906 17.7692 19.3906 17.6923V11.3848H20.8906V17.6923C20.8906 18.1974 20.7156 18.625 20.3656 18.975C20.0156 19.325 19.588 19.5 19.0829 19.5H5.69837ZM10.1099 14.3345L9.05613 13.2808L18.3369 4H14.3906V2.5H20.8906V9H19.3906V5.05375L10.1099 14.3345Z" />
    </symbol>

    <symbol viewBox="0 0 25 24" id="main-polis-list-more">
        <path d="M12.5 14.7307L16.0384 11.1923H8.96155L12.5 14.7307ZM12.5016 21.5C11.1877 21.5 9.95268 21.2506 8.79655 20.752C7.6404 20.2533 6.63472 19.5765 5.7795 18.7217C4.92427 17.8669 4.24721 16.8616 3.74833 15.706C3.24944 14.5504 3 13.3156 3 12.0017C3 10.6877 3.24933 9.45268 3.748 8.29655C4.24667 7.1404 4.92342 6.13472 5.77825 5.2795C6.6331 4.42427 7.63834 3.74721 8.79398 3.24833C9.94959 2.74944 11.1844 2.5 12.4983 2.5C13.8122 2.5 15.0473 2.74933 16.2034 3.248C17.3596 3.74667 18.3652 4.42342 19.2205 5.27825C20.0757 6.1331 20.7527 7.13834 21.2516 8.29398C21.7505 9.44959 22 10.6844 22 11.9983C22 13.3122 21.7506 14.5473 21.252 15.7034C20.7533 16.8596 20.0765 17.8652 19.2217 18.7205C18.3669 19.5757 17.3616 20.2527 16.206 20.7516C15.0504 21.2505 13.8156 21.5 12.5016 21.5ZM12.5 20C14.7333 20 16.625 19.225 18.175 17.675C19.725 16.125 20.5 14.2333 20.5 12C20.5 9.76664 19.725 7.87498 18.175 6.32498C16.625 4.77498 14.7333 3.99998 12.5 3.99998C10.2666 3.99998 8.37498 4.77498 6.82498 6.32498C5.27498 7.87498 4.49998 9.76664 4.49998 12C4.49998 14.2333 5.27498 16.125 6.82498 17.675C8.37498 19.225 10.2666 20 12.5 20Z" />
    </symbol>

    <symbol viewBox="0 0 25 24" id="app-control-icon-1">
        <path d="M4.99991 20.4999V11.2403L3.13261 12.673L2.23071 11.4769L4.99989 9.34997V6.48075H6.49989V8.2L12.4999 3.625L22.7691 11.4769L21.8672 12.6576L19.9999 11.2403V20.4999H4.99991ZM6.49989 19H11.3076V14.6153H13.6922V19H18.4999V10.0999L12.4999 5.52495L6.49989 10.0999V19Z" stroke="none" />
    </symbol>

    <symbol viewBox="0 0 25 24" id="app-control-icon-2">
        <path d="M6.14474 16H14.4342V14.4H6.14474V16ZM6.14474 11.7333H18.8553V10.1333H6.14474V11.7333ZM3.99804 20C3.4397 20 2.96711 19.8133 2.58026 19.44C2.19342 19.0667 2 18.6106 2 18.0717V5.92827C2 5.38942 2.19342 4.93333 2.58026 4.56C2.96711 4.18667 3.4397 4 3.99804 4H10.0662L12.2767 6.13333H21.002C21.5603 6.13333 22.0329 6.32 22.4197 6.69333C22.8066 7.06667 23 7.52276 23 8.0616V18.0717C23 18.6106 22.8066 19.0667 22.4197 19.44C22.0329 19.8133 21.5603 20 21.002 20H3.99804ZM3.99804 18.4H21.002C21.1012 18.4 21.1828 18.3692 21.2465 18.3077C21.3102 18.2462 21.3421 18.1676 21.3421 18.0717V8.0616C21.3421 7.96578 21.3102 7.88711 21.2465 7.8256C21.1828 7.76409 21.1012 7.73333 21.002 7.73333H11.5987L9.38813 5.6H3.99804C3.89875 5.6 3.81724 5.63076 3.7535 5.69227C3.68976 5.75378 3.65789 5.83244 3.65789 5.92827V18.0717C3.65789 18.1676 3.68976 18.2462 3.7535 18.3077C3.81724 18.3692 3.89875 18.4 3.99804 18.4Z" stroke="none" />
    </symbol>

    <symbol viewBox="0 0 25 24" id="app-control-icon-3">
        <path d="M20.4021 16.0551V18.6801C20.4031 18.9238 20.3532 19.165 20.2555 19.3883C20.1579 19.6115 20.0147 19.812 19.8352 19.9767C19.6556 20.1415 19.4436 20.2669 19.2128 20.345C18.9819 20.423 18.7373 20.452 18.4946 20.4301C15.8021 20.1375 13.2157 19.2175 10.9434 17.7438C8.8292 16.4004 7.03677 14.608 5.69335 12.4938C4.21458 10.2111 3.29431 7.6122 3.0071 4.90758C2.98524 4.66562 3.01399 4.42175 3.09154 4.19151C3.16909 3.96126 3.29373 3.74969 3.45752 3.57025C3.62132 3.39082 3.82068 3.24746 4.04292 3.14929C4.26516 3.05113 4.5054 3.00031 4.74835 3.00008H7.37335C7.798 2.99591 8.20967 3.14628 8.53164 3.42318C8.85362 3.70007 9.06392 4.0846 9.12335 4.50508C9.23415 5.34514 9.43962 6.16997 9.73585 6.96383C9.85358 7.27702 9.87906 7.61738 9.80927 7.9446C9.73948 8.27182 9.57736 8.57218 9.3421 8.81008L8.23085 9.92133C9.47646 12.1119 11.2902 13.9257 13.4809 15.1713L14.5921 14.0601C14.83 13.8248 15.1304 13.6627 15.4576 13.5929C15.7848 13.5231 16.1252 13.5486 16.4384 13.6663C17.2322 13.9626 18.057 14.168 18.8971 14.2788C19.3221 14.3388 19.7103 14.5529 19.9878 14.8804C20.2653 15.2079 20.4127 15.626 20.4021 16.0551Z" stroke-width="1.5" stroke-linecap="round" stroke-linejoin="round" fill="none" />
    </symbol>

    <symbol viewBox="0 0 25 24" id="app-control-icon-4">
        <path d="M20.6781 2.31736C20.8925 2.31736 21.0434 2.35725 21.1219 2.38755C21.2163 2.63918 21.3429 3.54093 20.4125 4.47367L15.6664 9.22824L15.7006 9.81812C15.7726 11.0525 15.906 13.2648 16.0211 15.1612C16.1227 16.8492 16.219 18.4433 16.2253 18.5789C16.2285 18.6722 16.2299 18.6942 16.1431 18.799C15.9491 19.0351 15.5872 19.4353 15.2821 19.767C14.809 18.49 13.8149 15.7929 13.2659 14.2832L12.5604 12.3406L11.1011 13.8027L8.41755 16.3878L8.04377 16.7616L8.03226 17.2902C8.02339 17.7121 8.02536 18.4693 8.02635 19.1369C8.02766 19.6019 8.029 20.0245 8.02571 20.2574C8.01979 20.2682 8.11546 20.2811 8.10658 20.2966C8.04938 20.2047 7.9879 20.1055 7.92281 20.0024C7.38169 19.1379 6.63281 17.942 6.40433 17.5688L6.23733 17.2955L5.96315 17.1295C4.96606 16.5261 3.86148 15.8295 3.18755 15.3944C3.21089 15.3809 3.22993 15.4524 3.24538 15.4441H3.28911C3.50115 15.4441 3.85159 15.4488 4.24445 15.4544C4.75828 15.4613 5.34114 15.4698 5.78725 15.4698C5.9582 15.4698 6.11008 15.4685 6.23238 15.4659L6.76001 15.4537L7.13314 15.0799L9.71676 12.4098L11.1711 10.9534L9.24108 10.242C7.79066 9.70745 5.01242 8.66799 3.71288 8.17889C4.04621 7.87128 4.44794 7.50602 4.68234 7.31168C4.74776 7.25767 4.79873 7.23002 4.83389 7.23002L4.88024 7.23134C5.02522 7.23826 6.82576 7.35617 8.56646 7.47012C10.4143 7.591 12.4999 7.72735 13.6857 7.80277L14.2784 7.83999L19.0252 3.0841C19.6919 2.41715 20.3467 2.31736 20.6781 2.31736ZM20.6782 1C19.9013 1 18.9477 1.29901 18.0959 2.1527L13.7686 6.48768C11.3313 6.33321 5.08904 5.91954 4.9342 5.91526C4.9008 5.91356 4.86737 5.91268 4.83393 5.9126C4.6232 5.9126 4.25928 5.95311 3.84506 6.29597C3.35884 6.69879 2.34499 7.65394 2.34499 7.65394C2.1004 7.89962 1.97646 8.20395 2.00605 8.49016C2.02413 8.66307 2.11783 8.97826 2.54158 9.14428C2.79899 9.24539 6.8955 10.7808 8.78713 11.4781L6.20351 14.1482C6.08908 14.1508 5.94739 14.1521 5.78729 14.1521C4.99962 14.1521 3.77832 14.1264 3.2888 14.1264C3.22404 14.1264 3.1721 14.1264 3.13525 14.1278C2.98633 14.1324 2.67797 14.0589 1.86465 14.74L1.80679 14.794C1.56286 15.0384 1.50566 15.2821 1.5004 15.4432C1.49514 15.6092 1.53952 15.8483 1.77918 16.0406C1.92317 16.1572 3.76908 17.3413 5.28294 18.2572C5.64589 18.8504 7.31592 21.5096 7.40304 21.6538C7.53029 21.8692 7.73836 21.9921 7.98725 22H8.00796C8.24991 22 8.49845 21.8798 8.74172 21.643C9.43011 20.8364 9.33511 20.5024 9.33804 20.3621C9.34889 19.9221 9.33048 18.0579 9.34626 17.3189L12.0295 14.7334C12.7153 16.6206 14.2143 20.6826 14.3146 20.9411C14.4816 21.3656 14.7962 21.4589 14.9688 21.4763C14.9971 21.4796 15.026 21.4809 15.0543 21.4809C15.3137 21.4809 15.5826 21.3587 15.8028 21.1381C15.8028 21.1381 16.7533 20.1276 17.157 19.6359C17.5613 19.1445 17.5455 18.7249 17.5377 18.527C17.5344 18.39 17.1537 12.1701 17.0123 9.74109L21.3406 5.40478C22.8745 3.86733 22.6306 2.01472 22.0609 1.44494C21.8094 1.19166 21.3002 1.00002 20.6782 1Z" stroke="none" />
    </symbol>

    <symbol viewBox="0 0 25 24" id="app-control-icon-5">
        <path d="M22.5 11.567C22.5 16.85 18.022 21.133 12.5 21.133C11.8487 21.1337 11.2037 21.0743 10.565 20.955C10.106 20.868 9.877 20.825 9.717 20.85C9.557 20.874 9.329 20.995 8.875 21.236C7.58134 21.925 6.0928 22.1565 4.651 21.893C5.20175 21.2122 5.57521 20.4054 5.738 19.545C5.838 19.015 5.59 18.5 5.218 18.123C3.534 16.411 2.5 14.105 2.5 11.567C2.5 6.284 6.978 2 12.5 2C18.022 2 22.5 6.284 22.5 11.567Z" stroke-width="1.5" stroke-linecap="round" stroke-linejoin="round" fill="none" />
        <path d="M10.5 9.846C10.5 8.826 11.395 8 12.5 8C13.605 8 14.5 8.827 14.5 9.846C14.5 10.214 14.384 10.556 14.183 10.844C13.585 11.7 12.5 12.519 12.5 13.539V14M12.5 16.5H12.509" stroke-width="1.5" stroke-linecap="round" stroke-linejoin="round" fill="none" />
    </symbol>

    <symbol viewBox="0 0 18 18" id="icon-copy">
        <path d="M6.79331 13.125C6.41444 13.125 6.09375 12.9938 5.83125 12.7313C5.56875 12.4688 5.4375 12.1481 5.4375 11.7692V3.23081C5.4375 2.85194 5.56875 2.53125 5.83125 2.26875C6.09375 2.00625 6.41444 1.875 6.79331 1.875H13.0817C13.4606 1.875 13.7812 2.00625 14.0438 2.26875C14.3063 2.53125 14.4375 2.85194 14.4375 3.23081V11.7692C14.4375 12.1481 14.3063 12.4688 14.0438 12.7313C13.7812 12.9938 13.4606 13.125 13.0817 13.125H6.79331ZM6.79331 12H13.0817C13.1394 12 13.1923 11.9759 13.2403 11.9278C13.2884 11.8798 13.3125 11.8269 13.3125 11.7692V3.23081C13.3125 3.17306 13.2884 3.12019 13.2403 3.07219C13.1923 3.02406 13.1394 3 13.0817 3H6.79331C6.73556 3 6.68269 3.02406 6.63469 3.07219C6.58656 3.12019 6.5625 3.17306 6.5625 3.23081V11.7692C6.5625 11.8269 6.58656 11.8798 6.63469 11.9278C6.68269 11.9759 6.73556 12 6.79331 12ZM4.16831 15.75C3.78944 15.75 3.46875 15.6188 3.20625 15.3563C2.94375 15.0938 2.8125 14.7731 2.8125 14.3942V4.73081H3.9375V14.3942C3.9375 14.4519 3.96156 14.5048 4.00969 14.5528C4.05769 14.6009 4.11056 14.625 4.16831 14.625H11.5817V15.75H4.16831Z" />
    </symbol>

    <symbol viewBox="0 0 24 25" id="clinics-list-item-form-close">
        <path d="M6.40002 19.1534L5.34619 18.0995L10.9462 12.4995L5.34619 6.89953L6.40002 5.8457L12 11.4457L17.6 5.8457L18.6538 6.89953L13.0538 12.4995L18.6538 18.0995L17.6 19.1534L12 13.5534L6.40002 19.1534Z" />
    </symbol>

    <symbol viewBox="0 0 24 24" id="clinics-list-item-form-input-date-calendar-month-prev">
        <path d="M15 18L9 12L15 6" stroke-width="2" stroke-linecap="round" stroke-linejoin="round" />
    </symbol>

    <symbol viewBox="0 0 24 24" id="clinics-list-item-form-input-date-calendar-month-next">
        <path d="M9 18L15 12L9 6" stroke-width="2" stroke-linecap="round" stroke-linejoin="round" />
    </symbol>

    <symbol viewBox="0 0 20 20" id="clinics-list-item-form-input-date-calendar-day-past">
        <path d="M16.9129 4.41291C17.279 4.0468 17.279 3.4532 16.9129 3.08709C16.5468 2.72097 15.9532 2.72097 15.5871 3.08709L10 8.67417L4.41291 3.08709C4.0468 2.72097 3.4532 2.72097 3.08709 3.08709C2.72097 3.4532 2.72097 4.0468 3.08709 4.41291L8.67417 10L3.08709 15.5871C2.72097 15.9532 2.72097 16.5468 3.08709 16.9129C3.4532 17.279 4.0468 17.279 4.41291 16.9129L10 11.3258L15.5871 16.9129C15.9532 17.279 16.5468 17.279 16.9129 16.9129C17.279 16.5468 17.279 15.9532 16.9129 15.5871L11.3258 10L16.9129 4.41291Z" />
    </symbol>

</svg>